<?xml version="1.0" encoding="UTF-8"?>
<svg id="svg7384" width="16.036" height="16" version="1.1" xmlns="http://www.w3.org/2000/svg" xmlns:cc="http://creativecommons.org/ns#" xmlns:dc="http://purl.org/dc/elements/1.1/" xmlns:osb="http://www.openswatchbook.org/uri/2009/osb" xmlns:rdf="http://www.w3.org/1999/02/22-rdf-syntax-ns#">
 <metadata id="metadata90">
  <rdf:RDF>
   <cc:Work rdf:about="">
    <dc:format>image/svg+xml</dc:format>
    <dc:type rdf:resource="http://purl.org/dc/dcmitype/StillImage"/>
    <dc:title>elementary Symbolic Icon Theme</dc:title>
   </cc:Work>
  </rdf:RDF>
 </metadata>
 <title id="title9167">elementary Symbolic Icon Theme</title>
 <path id="rect3375" d="m10.131 1a4.8692 4.8692 0 0 0-4.8692 4.8692 4.8692 4.8692 0 0 0 0.52306 2.1945l-4.427 4.4246c-0.47686 0.47686-0.47686 1.2469 0 1.7237l0.43034 0.43033c0.47686 0.47686 1.2469 0.47686 1.7237 0l4.4294-4.4317a4.8692 4.8692 0 0 0 2.1897 0.52782 4.8692 4.8692 0 0 0 4.8692-4.8692 4.8692 4.8692 0 0 0-0.52544-2.1897l-3.0504 3.0504c-0.47686 0.47686-1.2469 0.47686-1.7237 0l-0.43034-0.43034c-0.47686-0.47686-0.47686-1.2469 0-1.7237l3.0528-3.0528a4.8692 4.8692 0 0 0-2.1921-0.52306z" style="color-rendering:auto;color:#fbc02d;fill:#808080;image-rendering:auto;isolation:auto;mix-blend-mode:normal;shape-rendering:auto;solid-color:#000000"/>
 <path id="path4416-7" d="m7.089 2.4375c-0.83991-9.3e-5 -1.5884 0.52996-1.8672 1.3223l-2.5195 7.168c-0.45184 1.287 0.50314 2.6346 1.8672 2.6348h1.6309c0.79112-0.0014 1.5054-0.47374 1.8164-1.2012 0.31154 0.72874 1.0278 1.2014 1.8203 1.2012h1.6309c1.3644-1e-3 2.3185-1.3498 1.8652-2.6367l-2.5293-7.168c-0.27919-0.79086-1.0265-1.3199-1.8652-1.3203z" style="color-rendering:auto;color:#fbc02d;image-rendering:auto;isolation:auto;mix-blend-mode:normal;opacity:.07;shape-rendering:auto;solid-color:#000000"/>
 <path id="path4416" d="m7.088 3.3887c-0.43608 4.186e-4 -0.8244 0.27601-0.96875 0.6875l-2.5195 7.168c-0.23371 0.66769 0.26134 1.3664 0.96875 1.3672h1.6309c0.45206-3.26e-4 0.85083-0.29603 0.98242-0.72852l0.29688-0.9707h1.0781l0.29688 0.9707c0.1316 0.43249 0.53036 0.72819 0.98242 0.72852h1.6309c0.70857-3.63e-4 1.2042-0.70083 0.96875-1.3691l-2.5293-7.168c-0.145-0.41072-0.53318-0.68542-0.96875-0.68555z" style="color-rendering:auto;color:#fbc02d;image-rendering:auto;isolation:auto;mix-blend-mode:normal;opacity:.2;shape-rendering:auto;solid-color:#000000"/>
 <path id="text3368" d="m7.0884 4.416-2.5195 7.168h1.6309l0.51758-1.6992h2.6016l0.51758 1.6992h1.6309l-2.5293-7.168zm0.93164 1.1094c0.02604 0.11719 0.06836 0.27474 0.12695 0.47656 0.06185 0.20182 0.33203 1.0736 0.81055 2.6133h-1.8594c0.50781-1.6439 0.81445-2.6732 0.92187-3.0898z" style="fill:#fff"/>
</svg>
