<?xml version="1.0" encoding="UTF-8"?>
<svg id="svg2" width="16.036" height="16" version="1.1" xmlns="http://www.w3.org/2000/svg" xmlns:cc="http://creativecommons.org/ns#" xmlns:dc="http://purl.org/dc/elements/1.1/" xmlns:rdf="http://www.w3.org/1999/02/22-rdf-syntax-ns#">
 <metadata id="metadata12">
  <rdf:RDF>
   <cc:Work rdf:about="">
    <dc:format>image/svg+xml</dc:format>
    <dc:type rdf:resource="http://purl.org/dc/dcmitype/StillImage"/>
    <dc:title>elementary Symbolic Icon Theme</dc:title>
   </cc:Work>
  </rdf:RDF>
 </metadata>
 <title id="title4">elementary Symbolic Icon Theme</title>
 <path id="path8069" d="m5.5 14.5v0c-1.5 0.03125-2-0.9375-2-2v-2.5c0-0.84375-1.0001-1.5-2.5-1.5 1.2202-0.019546 2.51-0.43093 2.5-1.5v-2.5c-0.03125-1.0938 0.49997-2 2-2" style="fill:none;stroke-linecap:square;stroke-width:1px;stroke:#403757"/>
 <path id="path8075" d="m10.492 14.5v0c1.5 0.03125 2-0.9375 2-2v-2.5c0-0.84375 1.0001-1.5 2.5-1.5-1.2202-0.019546-2.51-0.43093-2.5-1.5v-2.5c0.03125-1.0938-0.49997-2-2-2" style="fill:none;stroke-linecap:square;stroke-width:1px;stroke:#403757"/>
</svg>
