<?xml version="1.0" encoding="UTF-8"?>
<svg id="svg7384" width="16.036" height="16" version="1.1" xmlns="http://www.w3.org/2000/svg" xmlns:cc="http://creativecommons.org/ns#" xmlns:dc="http://purl.org/dc/elements/1.1/" xmlns:osb="http://www.openswatchbook.org/uri/2009/osb" xmlns:rdf="http://www.w3.org/1999/02/22-rdf-syntax-ns#">
 <metadata id="metadata90">
  <rdf:RDF>
   <cc:Work rdf:about="">
    <dc:format>image/svg+xml</dc:format>
    <dc:type rdf:resource="http://purl.org/dc/dcmitype/StillImage"/>
    <dc:title>elementary Symbolic Icon Theme</dc:title>
   </cc:Work>
  </rdf:RDF>
 </metadata>
 <title id="title9167">elementary Symbolic Icon Theme</title>
 <path id="rect3375" d="m10.131 1a4.8692 4.8692 0 0 0-4.8692 4.8692 4.8692 4.8692 0 0 0 0.52306 2.1945l-4.427 4.4246c-0.47686 0.47686-0.47686 1.2469 0 1.7237l0.43034 0.43033c0.47686 0.47686 1.2469 0.47686 1.7237 0l4.4294-4.4317a4.8692 4.8692 0 0 0 2.1897 0.52782 4.8692 4.8692 0 0 0 4.8692-4.8692 4.8692 4.8692 0 0 0-0.52544-2.1897l-3.0504 3.0504c-0.47686 0.47686-1.2469 0.47686-1.7237 0l-0.43034-0.43034c-0.47686-0.47686-0.47686-1.2469 0-1.7237l3.0528-3.0528a4.8692 4.8692 0 0 0-2.1921-0.52306z" style="color-rendering:auto;color:#fbc02d;fill:#808080;image-rendering:auto;isolation:auto;mix-blend-mode:normal;shape-rendering:auto;solid-color:#000000"/>
</svg>
