<?xml version="1.0" encoding="UTF-8"?>
<svg id="svg7384" width="16.036" height="16" version="1.1" xmlns="http://www.w3.org/2000/svg" xmlns:cc="http://creativecommons.org/ns#" xmlns:dc="http://purl.org/dc/elements/1.1/" xmlns:osb="http://www.openswatchbook.org/uri/2009/osb" xmlns:rdf="http://www.w3.org/1999/02/22-rdf-syntax-ns#" xmlns:xlink="http://www.w3.org/1999/xlink">
 <metadata id="metadata90">
  <rdf:RDF>
   <cc:Work rdf:about="">
    <dc:format>image/svg+xml</dc:format>
    <dc:type rdf:resource="http://purl.org/dc/dcmitype/StillImage"/>
    <dc:title>elementary Symbolic Icon Theme</dc:title>
   </cc:Work>
  </rdf:RDF>
 </metadata>
 <title id="title9167">elementary Symbolic Icon Theme</title>
 <defs id="defs7386">
  <linearGradient id="linearGradient4175" x1="2.3022" x2="0" y1="5.7508" y2="7" gradientTransform="translate(0,-2)" gradientUnits="userSpaceOnUse">
   <stop id="stop4171" style="stop-color:#403757" offset="0"/>
   <stop id="stop4173" style="stop-color:#403757;stop-opacity:0" offset="1"/>
  </linearGradient>
 </defs>
 <path id="rect4194-8-1" d="m0 5v1h10v-1zm0 2v1h10v-1zm0 2v1h10v-1zm0 2v1h10v-1z" style="color-rendering:auto;color:#bebebe;fill:url(#linearGradient4175);image-rendering:auto;isolation:auto;mix-blend-mode:normal;opacity:.5;shape-rendering:auto;solid-color:#000000"/>
 <path id="rect4162-1-2-3" d="m9.8973 2.3502c-0.45527-0.45527-1.1752-0.46836-1.6142-0.029349l-3.9622 3.9622c-0.43901 0.43901-0.42592 1.159 0.029352 1.6142l5.7525 5.7525c0.45527 0.45527 1.1752 0.46836 1.6142 0.02935l3.9622-3.9622c0.43901-0.43901 0.42592-1.159-0.02935-1.6142z" style="color-rendering:auto;color:#fbc02d;fill:#844cc8;image-rendering:auto;isolation:auto;mix-blend-mode:normal;shape-rendering:auto;solid-color:#000000"/>
 <path id="path4498-6" d="m10.174 2.3574c-1.0716 0-2.1827 0.2792-3.0469 1.0059l-0.00586 0.00391c-0.85649 0.72573-1.3379 1.9165-1.3379 2.9941 0 0.59069 0.12185 1.219 0.41797 1.7891 0.04136 0.079619 0.11949 0.13221 0.16602 0.20898-0.42259 0.37373-0.66501 0.91047-0.66602 1.4746v1.4062c-4.84e-4 0.75377 0.4285 1.442 1.1055 1.7734 0.88901 0.43463 1.8796 0.62891 2.8887 0.62891 1.1214 0 2.2562-0.26047 3.166-0.99023h2e-3c0.89935-0.71948 1.4355-1.9467 1.4355-3.0625 0-0.81363-0.2517-1.6955-0.7832-2.3828-0.02623-0.034069-0.06899-0.035713-0.0957-0.068359 0.08229-0.1165 0.15171-0.24158 0.20703-0.37305l0.48823-1.1758c0.41293-0.99515-0.048726-2.1375-1.0371-2.5664-0.44898-0.19469-0.89667-0.35192-1.3457-0.46875-0.50362-0.13202-1.0283-0.19727-1.5586-0.19727z" style="color-rendering:auto;color:#fbc02d;image-rendering:auto;isolation:auto;mix-blend-mode:normal;opacity:.05;shape-rendering:auto;solid-color:#000000"/>
 <path id="path4498" d="m10.174 3.2734c-0.92475 0-1.7945 0.2339-2.457 0.79102l-0.00391 0.00195c-0.65691 0.55661-1.0137 1.4243-1.0137 2.2949 0 0.47216 0.095334 0.94538 0.31445 1.3672 0.19195 0.36951 0.45491 0.69835 0.76953 0.9707 0.0574 0.04969 0.14615 0.080833 0.20703 0.12695-0.68038-0.21274-1.3721 0.29495-1.373 1.0078v1.4062c7.33e-5 0.40338 0.22963 0.77158 0.5918 0.94922 0.74836 0.36586 1.5921 0.53711 2.4863 0.53711 0.9834 0 1.89-0.22536 2.5918-0.78711 0.69937-0.55754 1.0957-1.4516 1.0957-2.3496 0-0.65134-0.19102-1.3062-0.58984-1.8223-0.2343-0.30521-0.63671-0.48109-0.96875-0.70117 0.41985-0.00755 0.79545-0.26281 0.95703-0.65039l0.48828-1.1758c0.22224-0.53398-0.025755-1.1474-0.55664-1.377-0.41146-0.17842-0.81495-0.32041-1.2129-0.42383h-2e-3c-0.42489-0.11121-0.86841-0.16602-1.3242-0.16602z" style="color-rendering:auto;color:#fbc02d;image-rendering:auto;isolation:auto;mix-blend-mode:normal;opacity:.15;shape-rendering:auto;solid-color:#000000"/>
 <path id="text3368" d="m10.174 4.3301c-0.75521 0-1.3477 0.18164-1.7773 0.54297-0.42643 0.36133-0.64062 0.85677-0.64062 1.4883 0 0.33529 0.065104 0.62826 0.19531 0.87891 0.13021 0.25065 0.30534 0.47135 0.52344 0.66016 0.2181 0.1888 0.54427 0.38477 0.98047 0.58984 0.46549 0.22135 0.77409 0.38346 0.92383 0.48438 0.153 0.10091 0.26758 0.20573 0.3457 0.31641 0.07813 0.10742 0.11719 0.23112 0.11719 0.37109 0 0.25065-0.08854 0.43945-0.26758 0.56641-0.17578 0.12695-0.42969 0.19141-0.76172 0.19141-0.27669 0-0.58268-0.04492-0.91797-0.13281-0.33203-0.08789-0.73893-0.23828-1.2207-0.45312v1.4062c0.58594 0.28646 1.2598 0.42969 2.0215 0.42969 0.82682 0 1.4714-0.18555 1.9336-0.55664 0.4655-0.37109 0.69727-0.87891 0.69727-1.5234 0-0.46549-0.1237-0.85872-0.37109-1.1777-0.2474-0.32227-0.70378-0.64193-1.3711-0.96094-0.50456-0.24089-0.82617-0.4069-0.96289-0.49805-0.13346-0.094401-0.23112-0.19141-0.29297-0.28906-0.061849-0.10091-0.091797-0.2181-0.091797-0.35156 0-0.21484 0.075521-0.38802 0.22852-0.52148 0.15299-0.13346 0.3737-0.20117 0.66016-0.20117 0.24088-1e-7 0.48503 0.031901 0.73242 0.09375 0.25065 0.061849 0.56641 0.16992 0.94727 0.32617l0.48828-1.1758c-0.36784-0.15951-0.722-0.2832-1.0605-0.37109-0.33529-0.087891-0.6875-0.13281-1.0586-0.13281z" style="fill:#fff"/>
</svg>
