<?xml version="1.0" encoding="UTF-8"?>
<svg id="svg8175" width="16" height="16" version="1.1" viewBox="0 0 16 16" xmlns="http://www.w3.org/2000/svg" xmlns:cc="http://creativecommons.org/ns#" xmlns:dc="http://purl.org/dc/elements/1.1/" xmlns:rdf="http://www.w3.org/1999/02/22-rdf-syntax-ns#">
 <metadata id="metadata8180">
  <rdf:RDF>
   <cc:Work rdf:about="">
    <dc:format>image/svg+xml</dc:format>
    <dc:type rdf:resource="http://purl.org/dc/dcmitype/StillImage"/>
    <dc:title/>
   </cc:Work>
  </rdf:RDF>
 </metadata>
 <g id="layer1">
  <path id="path11" d="m5 9v5c0 1.1045 0.8955 2 2 2h1c1.1045 0 2-0.8955 2-2v-5h-1-3z" style="fill:#808080"/>
  <path id="path13" d="m7.5 0c-3.0371 0-5.5 2.4629-5.5 5.5 0 2.1359 1.2208 3.9835 3 4.8945v0.60547h2.5 2.5v-0.60547c1.7792-0.91099 3-2.7587 3-4.8945 0-3.0371-2.4629-5.5-5.5-5.5z" style="fill:#fbc02d"/>
  <path id="path12703" d="m6.0781 12.828 2.7656-1.6719" style="fill:none;opacity:.5;stroke-linecap:round;stroke-width:1px;stroke:#fff"/>
  <path id="path9" d="m5.5 4c-0.82712 0-1.5 0.67288-1.5 1.5s0.67288 1.5 1.5 1.5h0.5v4h1v-4h1v4h1v-4h0.5c0.82712 0 1.5-0.67288 1.5-1.5s-0.67288-1.5-1.5-1.5-1.5 0.67288-1.5 1.5v0.5h-1v-0.5c0-0.82712-0.67288-1.5-1.5-1.5zm0 1c0.27588 0 0.5 0.22462 0.5 0.5v0.5h-0.5c-0.27588 0-0.5-0.22462-0.5-0.5s0.22412-0.5 0.5-0.5zm4 0c0.27588 0 0.5 0.22462 0.5 0.5s-0.22412 0.5-0.5 0.5h-0.5v-0.5c0-0.27538 0.22412-0.5 0.5-0.5z" style="fill:#4b3601;opacity:.4"/>
  <path id="path12705" d="m6.0781 14.828 2.7656-1.6719" style="fill:none;opacity:.5;stroke-linecap:round;stroke-width:1px;stroke:#fff"/>
 </g>
</svg>
