<?xml version="1.0" encoding="UTF-8"?>
<svg id="svg7384" width="16.036" height="16" version="1.1" xmlns="http://www.w3.org/2000/svg" xmlns:cc="http://creativecommons.org/ns#" xmlns:dc="http://purl.org/dc/elements/1.1/" xmlns:osb="http://www.openswatchbook.org/uri/2009/osb" xmlns:rdf="http://www.w3.org/1999/02/22-rdf-syntax-ns#">
 <metadata id="metadata90">
  <rdf:RDF>
   <cc:Work rdf:about="">
    <dc:format>image/svg+xml</dc:format>
    <dc:type rdf:resource="http://purl.org/dc/dcmitype/StillImage"/>
    <dc:title>elementary Symbolic Icon Theme</dc:title>
   </cc:Work>
  </rdf:RDF>
 </metadata>
 <title id="title9167">elementary Symbolic Icon Theme</title>
 <path id="rect3375" d="m10.131 1a4.8692 4.8692 0 0 0-4.8692 4.8692 4.8692 4.8692 0 0 0 0.52306 2.1945l-4.427 4.4246c-0.47686 0.47686-0.47686 1.2469 0 1.7237l0.43034 0.43033c0.47686 0.47686 1.2469 0.47686 1.7237 0l4.4294-4.4317a4.8692 4.8692 0 0 0 2.1897 0.52782 4.8692 4.8692 0 0 0 4.8692-4.8692 4.8692 4.8692 0 0 0-0.52544-2.1897l-3.0504 3.0504c-0.47686 0.47686-1.2469 0.47686-1.7237 0l-0.43034-0.43034c-0.47686-0.47686-0.47686-1.2469 0-1.7237l3.0528-3.0528a4.8692 4.8692 0 0 0-2.1921-0.52306z" style="color-rendering:auto;color:#fbc02d;fill:#808080;image-rendering:auto;isolation:auto;mix-blend-mode:normal;shape-rendering:auto;solid-color:#000000"/>
 <path id="path3504-4" d="m6.752 2.5674c-1.2768-6.469e-4 -2.1762 1.2539-1.7656 2.4629l2.4219 7.1387c0.25706 0.75597 0.96714 1.2642 1.7656 1.2637h1.6504c0.79776-3.25e-4 1.5068-0.50838 1.7637-1.2637l2.4258-7.1387c0.4103-1.2083-0.48765-2.4622-1.7637-2.4629h-1.5273c-0.75503 2.893e-4 -1.4353 0.4561-1.7227 1.1543-0.28711-0.69754-0.96639-1.1532-1.7207-1.1543z" style="color-rendering:auto;color:#fbc02d;image-rendering:auto;isolation:auto;mix-blend-mode:normal;opacity:.07;shape-rendering:auto;solid-color:#000000"/>
 <path id="path3504" d="m6.751 3.5186c-0.62446 1.725e-4 -1.064 0.61376-0.86328 1.2051l2.4219 7.1387c0.12543 0.36999 0.47261 0.61898 0.86328 0.61914h1.6504c0.39067-1.59e-4 0.73785-0.24915 0.86328-0.61914l2.4258-7.1387c0.20073-0.59132-0.23882-1.2049-0.86328-1.2051h-1.5273c-0.397-1.511e-4 -0.74848 0.25655-0.86914 0.63477l-0.85547 2.6855-0.84961-2.6836c-0.11997-0.37899-0.47162-0.6366-0.86914-0.63672z" style="color-rendering:auto;color:#fbc02d;image-rendering:auto;isolation:auto;mix-blend-mode:normal;opacity:.2;shape-rendering:auto;solid-color:#000000"/>
 <path id="text3368" d="m6.751 4.4307 2.4219 7.1387h1.6504l2.4258-7.1387h-1.5273l-1.3535 4.248c-0.20833 0.7487-0.32943 1.2728-0.36524 1.5723-0.01953-0.13021-0.07096-0.36133-0.15234-0.69336-0.07813-0.33529-0.15365-0.62826-0.22852-0.87891l-1.3438-4.248z" style="fill:#fff"/>
</svg>
