<?xml version="1.0" encoding="UTF-8"?>
<svg id="svg3964" width="48" height="48" version="1.1" xmlns="http://www.w3.org/2000/svg" xmlns:cc="http://creativecommons.org/ns#" xmlns:dc="http://purl.org/dc/elements/1.1/" xmlns:rdf="http://www.w3.org/1999/02/22-rdf-syntax-ns#">
 <metadata id="metadata3969">
  <rdf:RDF>
   <cc:Work rdf:about="">
    <dc:format>image/svg+xml</dc:format>
    <dc:type rdf:resource="http://purl.org/dc/dcmitype/StillImage"/>
    <dc:title/>
   </cc:Work>
  </rdf:RDF>
 </metadata>
 <path id="path11155-5" d="m45.687 40.556-19.097-36c-0.54891-1-1.5421-1.5556-2.6483-1.5556-1.1062 0-2.1045 0.66666-2.6617 1.6667l-18.955 36c-0.44617 0.88889-0.45127 2.1111 0.0981 3 0.54936 0.8889 1.4324 1.3333 2.5386 1.3333h38.052c1.1062 0 2.104-0.55556 2.5502-1.4444 0.55677-0.88889 0.56141-2 0.12312-3z" style="color-rendering:auto;color:#fbc02d;fill:#fbc02d;filter-blend-mode:normal;filter-gaussianBlur-deviation:0;image-rendering:auto;isolation:auto;mix-blend-mode:normal;shape-rendering:auto;solid-color:#000000"/>
 <path id="path3295-1-9" d="m21.582 14.623c0.56298 5.4993 1.2078 10.961 1.6871 16.482h1.5294c0.39752-5.3018 1.0387-10.572 1.5012-15.867 0.23577-1.2538-0.40799-2.7425-1.732-3.0472-1.3083-0.38251-2.7701 0.56472-2.944 1.9178-0.0288 0.16985-0.0417 0.34223-0.0417 0.51446h-1e-5zm-0.16686 22.359c-0.0595 1.6369 1.7416 2.9201 3.2795 2.4012 1.4895-0.38015 2.2741-2.2523 1.5107-3.5831-0.68335-1.3756-2.6872-1.8289-3.84-0.77606-0.58269 0.47873-0.96891 1.1934-0.95015 1.958z" style="color-rendering:auto;color:#bebebe;fill:#403757;filter-blend-mode:normal;filter-gaussianBlur-deviation:0;image-rendering:auto;isolation:auto;mix-blend-mode:normal;opacity:.6;shape-rendering:auto;solid-color:#000000"/>
</svg>
