<?xml version="1.0" encoding="UTF-8" standalone="no"?>
<!DOCTYPE svg PUBLIC "-//W3C//DTD SVG 1.1//EN"
 "http://www.w3.org/Graphics/SVG/1.1/DTD/svg11.dtd">
<!-- Generated by graphviz version 2.43.0 (0)
 -->
<!-- Title: He.Application Pages: 1 -->
<svg width="361pt" height="260pt"
 viewBox="0.00 0.00 360.50 260.00" xmlns="http://www.w3.org/2000/svg" xmlns:xlink="http://www.w3.org/1999/xlink">
<g id="graph0" class="graph" transform="scale(1 1) rotate(0) translate(4 256)">
<title>He.Application</title>
<polygon fill="white" stroke="transparent" points="-4,4 -4,-256 356.5,-256 356.5,4 -4,4"/>
<!-- He.Application -->
<g id="node1" class="node">
<title>He.Application</title>
<g id="a_node1"><a xlink:href="He.Application.html" xlink:title="He.Application">
<polygon fill="none" stroke="black" stroke-width="2" points="231,-36 131,-36 131,0 231,0 231,-36"/>
<text text-anchor="middle" x="181" y="-14.3" font-family="Times" font-size="14.00">He.Application</text>
</a>
</g>
</g>
<!-- Gtk.Application -->
<g id="node2" class="node">
<title>Gtk.Application</title>
<polygon fill="none" stroke="black" stroke-width="2" points="233,-108 129,-108 129,-72 233,-72 233,-108"/>
<text text-anchor="middle" x="181" y="-86.3" font-family="Times" font-size="14.00">Gtk.Application</text>
</g>
<!-- Gtk.Application&#45;&gt;He.Application -->
<g id="edge1" class="edge">
<title>Gtk.Application&#45;&gt;He.Application</title>
<path fill="none" stroke="black" d="M181,-61.67C181,-53.05 181,-43.79 181,-36.1"/>
<polygon fill="black" stroke="black" points="177.5,-61.7 181,-71.7 184.5,-61.7 177.5,-61.7"/>
</g>
<!-- GLib.Application -->
<g id="node3" class="node">
<title>GLib.Application</title>
<polygon fill="none" stroke="black" stroke-width="2" points="237.5,-180 124.5,-180 124.5,-144 237.5,-144 237.5,-180"/>
<text text-anchor="middle" x="181" y="-158.3" font-family="Times" font-size="14.00">GLib.Application</text>
</g>
<!-- GLib.Application&#45;&gt;Gtk.Application -->
<g id="edge2" class="edge">
<title>GLib.Application&#45;&gt;Gtk.Application</title>
<path fill="none" stroke="black" d="M181,-133.67C181,-125.05 181,-115.79 181,-108.1"/>
<polygon fill="black" stroke="black" points="177.5,-133.7 181,-143.7 184.5,-133.7 177.5,-133.7"/>
</g>
<!-- GLib.Object -->
<g id="node4" class="node">
<title>GLib.Object</title>
<polygon fill="none" stroke="black" stroke-width="2" points="223.5,-252 138.5,-252 138.5,-216 223.5,-216 223.5,-252"/>
<text text-anchor="middle" x="181" y="-230.3" font-family="Times" font-size="14.00">GLib.Object</text>
</g>
<!-- GLib.Object&#45;&gt;GLib.Application -->
<g id="edge3" class="edge">
<title>GLib.Object&#45;&gt;GLib.Application</title>
<path fill="none" stroke="black" d="M181,-205.67C181,-197.05 181,-187.79 181,-180.1"/>
<polygon fill="black" stroke="black" points="177.5,-205.7 181,-215.7 184.5,-205.7 177.5,-205.7"/>
</g>
<!-- GLib.ActionGroup -->
<g id="node5" class="node">
<title>GLib.ActionGroup</title>
<polygon fill="none" stroke="black" points="120,-252 0,-252 0,-216 120,-216 120,-252"/>
<text text-anchor="middle" x="60" y="-230.3" font-family="Times" font-size="14.00">GLib.ActionGroup</text>
</g>
<!-- GLib.ActionGroup&#45;&gt;Gtk.Application -->
<g id="edge6" class="edge">
<title>GLib.ActionGroup&#45;&gt;Gtk.Application</title>
<path fill="none" stroke="black" d="M73.16,-206.68C83.18,-188.06 98.1,-163.12 115,-144 126.97,-130.46 142.67,-117.69 155.76,-108.09"/>
<polygon fill="black" stroke="black" points="69.94,-205.29 68.38,-215.77 76.13,-208.55 69.94,-205.29"/>
</g>
<!-- GLib.ActionGroup&#45;&gt;GLib.Application -->
<g id="edge4" class="edge">
<title>GLib.ActionGroup&#45;&gt;GLib.Application</title>
<path fill="none" stroke="black" d="M98.27,-210.86C115.41,-200.95 135.3,-189.44 151.29,-180.19"/>
<polygon fill="black" stroke="black" points="96.5,-207.84 89.6,-215.88 100.01,-213.9 96.5,-207.84"/>
</g>
<!-- GLib.ActionMap -->
<g id="node6" class="node">
<title>GLib.ActionMap</title>
<polygon fill="none" stroke="black" points="352.5,-252 241.5,-252 241.5,-216 352.5,-216 352.5,-252"/>
<text text-anchor="middle" x="297" y="-230.3" font-family="Times" font-size="14.00">GLib.ActionMap</text>
</g>
<!-- GLib.ActionMap&#45;&gt;Gtk.Application -->
<g id="edge7" class="edge">
<title>GLib.ActionMap&#45;&gt;Gtk.Application</title>
<path fill="none" stroke="black" d="M285.11,-206.65C275.97,-188.03 262.19,-163.08 246,-144 234.51,-130.45 219.21,-117.78 206.34,-108.23"/>
<polygon fill="black" stroke="black" points="281.99,-208.24 289.45,-215.75 288.3,-205.22 281.99,-208.24"/>
</g>
<!-- GLib.ActionMap&#45;&gt;GLib.Application -->
<g id="edge5" class="edge">
<title>GLib.ActionMap&#45;&gt;GLib.Application</title>
<path fill="none" stroke="black" d="M259.86,-210.59C243.53,-200.74 224.67,-189.35 209.49,-180.19"/>
<polygon fill="black" stroke="black" points="258.25,-213.71 268.62,-215.88 261.87,-207.71 258.25,-213.71"/>
</g>
</g>
</svg>
