<?xml version="1.0" encoding="UTF-8" standalone="no"?>
<!DOCTYPE svg PUBLIC "-//W3C//DTD SVG 1.1//EN"
 "http://www.w3.org/Graphics/SVG/1.1/DTD/svg11.dtd">
<!-- Generated by graphviz version 2.43.0 (0)
 -->
<!-- Title: He.ApplicationWindow Pages: 1 -->
<svg width="896pt" height="404pt"
 viewBox="0.00 0.00 895.51 404.00" xmlns="http://www.w3.org/2000/svg" xmlns:xlink="http://www.w3.org/1999/xlink">
<g id="graph0" class="graph" transform="scale(1 1) rotate(0) translate(4 400)">
<title>He.ApplicationWindow</title>
<polygon fill="white" stroke="transparent" points="-4,4 -4,-400 891.51,-400 891.51,4 -4,4"/>
<!-- He.ApplicationWindow -->
<g id="node1" class="node">
<title>He.ApplicationWindow</title>
<g id="a_node1"><a xlink:href="He.ApplicationWindow.html" xlink:title="He.ApplicationWindow">
<polygon fill="none" stroke="black" stroke-width="2" points="549.01,-36 403.01,-36 403.01,0 549.01,0 549.01,-36"/>
<text text-anchor="middle" x="476.01" y="-14.3" font-family="Times" font-size="14.00">He.ApplicationWindow</text>
</a>
</g>
</g>
<!-- Gtk.ApplicationWindow -->
<g id="node2" class="node">
<title>Gtk.ApplicationWindow</title>
<polygon fill="none" stroke="black" stroke-width="2" points="551.51,-108 400.51,-108 400.51,-72 551.51,-72 551.51,-108"/>
<text text-anchor="middle" x="476.01" y="-86.3" font-family="Times" font-size="14.00">Gtk.ApplicationWindow</text>
</g>
<!-- Gtk.ApplicationWindow&#45;&gt;He.ApplicationWindow -->
<g id="edge1" class="edge">
<title>Gtk.ApplicationWindow&#45;&gt;He.ApplicationWindow</title>
<path fill="none" stroke="black" d="M476.01,-61.67C476.01,-53.05 476.01,-43.79 476.01,-36.1"/>
<polygon fill="black" stroke="black" points="472.51,-61.7 476.01,-71.7 479.51,-61.7 472.51,-61.7"/>
</g>
<!-- Gtk.Window -->
<g id="node3" class="node">
<title>Gtk.Window</title>
<polygon fill="none" stroke="black" stroke-width="2" points="351.51,-180 264.51,-180 264.51,-144 351.51,-144 351.51,-180"/>
<text text-anchor="middle" x="308.01" y="-158.3" font-family="Times" font-size="14.00">Gtk.Window</text>
</g>
<!-- Gtk.Window&#45;&gt;Gtk.ApplicationWindow -->
<g id="edge2" class="edge">
<title>Gtk.Window&#45;&gt;Gtk.ApplicationWindow</title>
<path fill="none" stroke="black" d="M358.58,-139.93C383.03,-129.74 412,-117.67 435.05,-108.07"/>
<polygon fill="black" stroke="black" points="356.99,-136.8 349.11,-143.88 359.68,-143.26 356.99,-136.8"/>
</g>
<!-- Gtk.Widget -->
<g id="node4" class="node">
<title>Gtk.Widget</title>
<polygon fill="none" stroke="black" stroke-width="2" points="314.01,-252 234.01,-252 234.01,-216 314.01,-216 314.01,-252"/>
<text text-anchor="middle" x="274.01" y="-230.3" font-family="Times" font-size="14.00">Gtk.Widget</text>
</g>
<!-- Gtk.Widget&#45;&gt;Gtk.Window -->
<g id="edge3" class="edge">
<title>Gtk.Widget&#45;&gt;Gtk.Window</title>
<path fill="none" stroke="black" d="M286.87,-206.51C291.17,-197.67 295.84,-188.04 299.7,-180.1"/>
<polygon fill="black" stroke="black" points="283.63,-205.17 282.41,-215.7 289.93,-208.23 283.63,-205.17"/>
</g>
<!-- GLib.InitiallyUnowned -->
<g id="node5" class="node">
<title>GLib.InitiallyUnowned</title>
<polygon fill="none" stroke="black" stroke-width="2" points="311.01,-324 167.01,-324 167.01,-288 311.01,-288 311.01,-324"/>
<text text-anchor="middle" x="239.01" y="-302.3" font-family="Times" font-size="14.00">GLib.InitiallyUnowned</text>
</g>
<!-- GLib.InitiallyUnowned&#45;&gt;Gtk.Widget -->
<g id="edge4" class="edge">
<title>GLib.InitiallyUnowned&#45;&gt;Gtk.Widget</title>
<path fill="none" stroke="black" d="M252.25,-278.51C256.68,-269.67 261.49,-260.04 265.46,-252.1"/>
<polygon fill="black" stroke="black" points="249,-277.19 247.66,-287.7 255.26,-280.32 249,-277.19"/>
</g>
<!-- GLib.Object -->
<g id="node6" class="node">
<title>GLib.Object</title>
<polygon fill="none" stroke="black" stroke-width="2" points="281.51,-396 196.51,-396 196.51,-360 281.51,-360 281.51,-396"/>
<text text-anchor="middle" x="239.01" y="-374.3" font-family="Times" font-size="14.00">GLib.Object</text>
</g>
<!-- GLib.Object&#45;&gt;GLib.InitiallyUnowned -->
<g id="edge5" class="edge">
<title>GLib.Object&#45;&gt;GLib.InitiallyUnowned</title>
<path fill="none" stroke="black" d="M239.01,-349.67C239.01,-341.05 239.01,-331.79 239.01,-324.1"/>
<polygon fill="black" stroke="black" points="235.51,-349.7 239.01,-359.7 242.51,-349.7 235.51,-349.7"/>
</g>
<!-- Gtk.Accessible -->
<g id="node7" class="node">
<title>Gtk.Accessible</title>
<polygon fill="none" stroke="black" points="148.51,-324 49.51,-324 49.51,-288 148.51,-288 148.51,-324"/>
<text text-anchor="middle" x="99.01" y="-302.3" font-family="Times" font-size="14.00">Gtk.Accessible</text>
</g>
<!-- Gtk.Accessible&#45;&gt;Gtk.ApplicationWindow -->
<g id="edge17" class="edge">
<title>Gtk.Accessible&#45;&gt;Gtk.ApplicationWindow</title>
<path fill="none" stroke="black" d="M40.34,-283.79C26.71,-275.96 13.9,-265.58 6.01,-252 -2.03,-238.17 -1.95,-229.88 6.01,-216 37.52,-161.05 69.3,-165.16 129.01,-144 218.9,-112.14 328.57,-99.43 400.24,-94.36"/>
<polygon fill="black" stroke="black" points="38.89,-286.98 49.36,-288.57 42.16,-280.8 38.89,-286.98"/>
</g>
<!-- Gtk.Accessible&#45;&gt;Gtk.Window -->
<g id="edge9" class="edge">
<title>Gtk.Accessible&#45;&gt;Gtk.Window</title>
<path fill="none" stroke="black" d="M139.64,-282.51C154.64,-273.63 171.51,-262.94 186.01,-252 204.84,-237.79 206.33,-230.4 225.01,-216 241.93,-202.95 262.12,-190.01 278.35,-180.18"/>
<polygon fill="black" stroke="black" points="137.46,-279.73 130.58,-287.79 140.98,-285.78 137.46,-279.73"/>
</g>
<!-- Gtk.Accessible&#45;&gt;Gtk.Widget -->
<g id="edge6" class="edge">
<title>Gtk.Accessible&#45;&gt;Gtk.Widget</title>
<path fill="none" stroke="black" d="M151.29,-284.09C177.7,-273.52 209.25,-260.9 233.74,-251.11"/>
<polygon fill="black" stroke="black" points="149.8,-280.91 141.82,-287.88 152.4,-287.41 149.8,-280.91"/>
</g>
<!-- Gtk.Buildable -->
<g id="node8" class="node">
<title>Gtk.Buildable</title>
<polygon fill="none" stroke="black" points="422.51,-324 329.51,-324 329.51,-288 422.51,-288 422.51,-324"/>
<text text-anchor="middle" x="376.01" y="-302.3" font-family="Times" font-size="14.00">Gtk.Buildable</text>
</g>
<!-- Gtk.Buildable&#45;&gt;Gtk.ApplicationWindow -->
<g id="edge18" class="edge">
<title>Gtk.Buildable&#45;&gt;Gtk.ApplicationWindow</title>
<path fill="none" stroke="black" d="M432.46,-287.87C488.39,-274.27 520.3,-294.52 552.01,-252 587.12,-204.92 528.25,-139.04 495.56,-108.2"/>
<polygon fill="black" stroke="black" points="431.23,-284.58 422.51,-290.59 433.08,-291.33 431.23,-284.58"/>
</g>
<!-- Gtk.Buildable&#45;&gt;Gtk.Window -->
<g id="edge10" class="edge">
<title>Gtk.Buildable&#45;&gt;Gtk.Window</title>
<path fill="none" stroke="black" d="M363.47,-278.81C349.7,-250.07 328,-204.74 316.24,-180.19"/>
<polygon fill="black" stroke="black" points="360.33,-280.36 367.81,-287.87 366.64,-277.34 360.33,-280.36"/>
</g>
<!-- Gtk.Buildable&#45;&gt;Gtk.Widget -->
<g id="edge7" class="edge">
<title>Gtk.Buildable&#45;&gt;Gtk.Widget</title>
<path fill="none" stroke="black" d="M342.55,-282.04C328.38,-272.32 312.16,-261.18 299.06,-252.19"/>
<polygon fill="black" stroke="black" points="340.83,-285.1 351.06,-287.88 344.79,-279.33 340.83,-285.1"/>
</g>
<!-- Gtk.ConstraintTarget -->
<g id="node9" class="node">
<title>Gtk.ConstraintTarget</title>
<polygon fill="none" stroke="black" points="571.51,-324 440.51,-324 440.51,-288 571.51,-288 571.51,-324"/>
<text text-anchor="middle" x="506.01" y="-302.3" font-family="Times" font-size="14.00">Gtk.ConstraintTarget</text>
</g>
<!-- Gtk.ConstraintTarget&#45;&gt;Gtk.ApplicationWindow -->
<g id="edge19" class="edge">
<title>Gtk.ConstraintTarget&#45;&gt;Gtk.ApplicationWindow</title>
<path fill="none" stroke="black" d="M555.98,-282.65C567.95,-274.77 579.22,-264.64 586.01,-252 608.72,-209.71 611.54,-184.65 586.01,-144 575.63,-127.49 558.51,-116 540.83,-108.05"/>
<polygon fill="black" stroke="black" points="553.92,-279.81 547.19,-288 557.56,-285.79 553.92,-279.81"/>
</g>
<!-- Gtk.ConstraintTarget&#45;&gt;Gtk.Window -->
<g id="edge11" class="edge">
<title>Gtk.ConstraintTarget&#45;&gt;Gtk.Window</title>
<path fill="none" stroke="black" d="M455.05,-283.77C436.66,-275.09 416.22,-264.21 399.01,-252 368.91,-230.64 339.36,-199.28 322.44,-180.05"/>
<polygon fill="black" stroke="black" points="453.62,-286.96 464.16,-287.97 456.55,-280.61 453.62,-286.96"/>
</g>
<!-- Gtk.ConstraintTarget&#45;&gt;Gtk.Widget -->
<g id="edge8" class="edge">
<title>Gtk.ConstraintTarget&#45;&gt;Gtk.Widget</title>
<path fill="none" stroke="black" d="M439.76,-285.01C399.28,-272.8 348.83,-257.57 314.28,-247.15"/>
<polygon fill="black" stroke="black" points="438.97,-288.43 449.55,-287.97 440.99,-281.73 438.97,-288.43"/>
</g>
<!-- Gtk.Native -->
<g id="node10" class="node">
<title>Gtk.Native</title>
<polygon fill="none" stroke="black" points="92.51,-252 15.51,-252 15.51,-216 92.51,-216 92.51,-252"/>
<text text-anchor="middle" x="54.01" y="-230.3" font-family="Times" font-size="14.00">Gtk.Native</text>
</g>
<!-- Gtk.Native&#45;&gt;Gtk.ApplicationWindow -->
<g id="edge20" class="edge">
<title>Gtk.Native&#45;&gt;Gtk.ApplicationWindow</title>
<path fill="none" stroke="black" d="M84.49,-209.73C112.7,-189.33 156.58,-160.45 199.01,-144 264.52,-118.61 343.63,-105.03 400.5,-98"/>
<polygon fill="black" stroke="black" points="82.25,-207.03 76.25,-215.76 86.39,-212.67 82.25,-207.03"/>
</g>
<!-- Gtk.Native&#45;&gt;Gtk.Window -->
<g id="edge12" class="edge">
<title>Gtk.Native&#45;&gt;Gtk.Window</title>
<path fill="none" stroke="black" d="M102.43,-215.69C163.44,-197.18 224.47,-182.2 264.46,-172.86"/>
<polygon fill="black" stroke="black" points="101.17,-212.42 92.64,-218.69 103.22,-219.11 101.17,-212.42"/>
</g>
<!-- Gtk.Root -->
<g id="node11" class="node">
<title>Gtk.Root</title>
<polygon fill="none" stroke="black" points="177.51,-252 110.51,-252 110.51,-216 177.51,-216 177.51,-252"/>
<text text-anchor="middle" x="144.01" y="-230.3" font-family="Times" font-size="14.00">Gtk.Root</text>
</g>
<!-- Gtk.Root&#45;&gt;Gtk.ApplicationWindow -->
<g id="edge21" class="edge">
<title>Gtk.Root&#45;&gt;Gtk.ApplicationWindow</title>
<path fill="none" stroke="black" d="M167.64,-208.81C188.74,-188.58 221.43,-160.46 255.01,-144 300.63,-121.65 356.26,-108.37 400.29,-100.7"/>
<polygon fill="black" stroke="black" points="165.12,-206.38 160.41,-215.87 170.01,-211.39 165.12,-206.38"/>
</g>
<!-- Gtk.Root&#45;&gt;Gtk.Window -->
<g id="edge13" class="edge">
<title>Gtk.Root&#45;&gt;Gtk.Window</title>
<path fill="none" stroke="black" d="M186.88,-214.7C212,-203.98 243.52,-190.53 268.11,-180.03"/>
<polygon fill="black" stroke="black" points="185.42,-211.52 177.59,-218.67 188.16,-217.96 185.42,-211.52"/>
</g>
<!-- Gtk.ShortcutManager -->
<g id="node12" class="node">
<title>Gtk.ShortcutManager</title>
<polygon fill="none" stroke="black" points="543.51,-252 408.51,-252 408.51,-216 543.51,-216 543.51,-252"/>
<text text-anchor="middle" x="476.01" y="-230.3" font-family="Times" font-size="14.00">Gtk.ShortcutManager</text>
</g>
<!-- Gtk.ShortcutManager&#45;&gt;Gtk.ApplicationWindow -->
<g id="edge22" class="edge">
<title>Gtk.ShortcutManager&#45;&gt;Gtk.ApplicationWindow</title>
<path fill="none" stroke="black" d="M476.01,-205.68C476.01,-176.89 476.01,-132.42 476.01,-108.19"/>
<polygon fill="black" stroke="black" points="472.51,-205.87 476.01,-215.87 479.51,-205.87 472.51,-205.87"/>
</g>
<!-- Gtk.ShortcutManager&#45;&gt;Gtk.Window -->
<g id="edge14" class="edge">
<title>Gtk.ShortcutManager&#45;&gt;Gtk.Window</title>
<path fill="none" stroke="black" d="M425.44,-211.93C400.99,-201.74 372.02,-189.67 348.97,-180.07"/>
<polygon fill="black" stroke="black" points="424.33,-215.26 434.91,-215.88 427.03,-208.8 424.33,-215.26"/>
</g>
<!-- GLib.ActionGroup -->
<g id="node13" class="node">
<title>GLib.ActionGroup</title>
<polygon fill="none" stroke="black" points="758.01,-180 638.01,-180 638.01,-144 758.01,-144 758.01,-180"/>
<text text-anchor="middle" x="698.01" y="-158.3" font-family="Times" font-size="14.00">GLib.ActionGroup</text>
</g>
<!-- GLib.ActionGroup&#45;&gt;Gtk.ApplicationWindow -->
<g id="edge15" class="edge">
<title>GLib.ActionGroup&#45;&gt;Gtk.ApplicationWindow</title>
<path fill="none" stroke="black" d="M634.03,-140.83C601.18,-130.47 561.61,-117.99 530.27,-108.11"/>
<polygon fill="black" stroke="black" points="633.4,-144.3 643.99,-143.97 635.5,-137.62 633.4,-144.3"/>
</g>
<!-- GLib.ActionMap -->
<g id="node14" class="node">
<title>GLib.ActionMap</title>
<polygon fill="none" stroke="black" points="887.51,-180 776.51,-180 776.51,-144 887.51,-144 887.51,-180"/>
<text text-anchor="middle" x="832.01" y="-158.3" font-family="Times" font-size="14.00">GLib.ActionMap</text>
</g>
<!-- GLib.ActionMap&#45;&gt;Gtk.ApplicationWindow -->
<g id="edge16" class="edge">
<title>GLib.ActionMap&#45;&gt;Gtk.ApplicationWindow</title>
<path fill="none" stroke="black" d="M766.3,-143.93C687.49,-126.69 608.19,-112.63 551.69,-103.17"/>
<polygon fill="black" stroke="black" points="765.89,-147.43 776.41,-146.16 767.4,-140.59 765.89,-147.43"/>
</g>
</g>
</svg>
