<?xml version="1.0" encoding="UTF-8" standalone="no"?>
<!DOCTYPE svg PUBLIC "-//W3C//DTD SVG 1.1//EN"
 "http://www.w3.org/Graphics/SVG/1.1/DTD/svg11.dtd">
<!-- Generated by graphviz version 2.43.0 (0)
 -->
<!-- Title: He.ApplicationWindow Pages: 1 -->
<svg width="716pt" height="404pt"
 viewBox="0.00 0.00 716.00 404.00" xmlns="http://www.w3.org/2000/svg" xmlns:xlink="http://www.w3.org/1999/xlink">
<g id="graph0" class="graph" transform="scale(1 1) rotate(0) translate(4 400)">
<title>He.ApplicationWindow</title>
<polygon fill="white" stroke="transparent" points="-4,4 -4,-400 712,-400 712,4 -4,4"/>
<!-- He.ApplicationWindow -->
<g id="node1" class="node">
<title>He.ApplicationWindow</title>
<g id="a_node1"><a xlink:href="He.ApplicationWindow.html" xlink:title="He.ApplicationWindow">
<polygon fill="none" stroke="black" stroke-width="2" points="437.5,-36 291.5,-36 291.5,0 437.5,0 437.5,-36"/>
<text text-anchor="middle" x="364.5" y="-14.3" font-family="Times" font-size="14.00">He.ApplicationWindow</text>
</a>
</g>
</g>
<!-- He.Window -->
<g id="node2" class="node">
<title>He.Window</title>
<g id="a_node2"><a xlink:href="He.Window.html" xlink:title="He.Window">
<polygon fill="none" stroke="black" stroke-width="2" points="406,-108 323,-108 323,-72 406,-72 406,-108"/>
<text text-anchor="middle" x="364.5" y="-86.3" font-family="Times" font-size="14.00">He.Window</text>
</a>
</g>
</g>
<!-- He.Window&#45;&gt;He.ApplicationWindow -->
<g id="edge1" class="edge">
<title>He.Window&#45;&gt;He.ApplicationWindow</title>
<path fill="none" stroke="black" d="M364.5,-61.67C364.5,-53.05 364.5,-43.79 364.5,-36.1"/>
<polygon fill="black" stroke="black" points="361,-61.7 364.5,-71.7 368,-61.7 361,-61.7"/>
</g>
<!-- Gtk.Window -->
<g id="node3" class="node">
<title>Gtk.Window</title>
<polygon fill="none" stroke="black" stroke-width="2" points="408,-180 321,-180 321,-144 408,-144 408,-180"/>
<text text-anchor="middle" x="364.5" y="-158.3" font-family="Times" font-size="14.00">Gtk.Window</text>
</g>
<!-- Gtk.Window&#45;&gt;He.Window -->
<g id="edge2" class="edge">
<title>Gtk.Window&#45;&gt;He.Window</title>
<path fill="none" stroke="black" d="M364.5,-133.67C364.5,-125.05 364.5,-115.79 364.5,-108.1"/>
<polygon fill="black" stroke="black" points="361,-133.7 364.5,-143.7 368,-133.7 361,-133.7"/>
</g>
<!-- Gtk.Widget -->
<g id="node4" class="node">
<title>Gtk.Widget</title>
<polygon fill="none" stroke="black" stroke-width="2" points="298.5,-252 218.5,-252 218.5,-216 298.5,-216 298.5,-252"/>
<text text-anchor="middle" x="258.5" y="-230.3" font-family="Times" font-size="14.00">Gtk.Widget</text>
</g>
<!-- Gtk.Widget&#45;&gt;Gtk.Window -->
<g id="edge3" class="edge">
<title>Gtk.Widget&#45;&gt;Gtk.Window</title>
<path fill="none" stroke="black" d="M292.86,-210.31C307.68,-200.53 324.72,-189.27 338.47,-180.19"/>
<polygon fill="black" stroke="black" points="290.85,-207.44 284.43,-215.88 294.7,-213.29 290.85,-207.44"/>
</g>
<!-- GLib.InitiallyUnowned -->
<g id="node5" class="node">
<title>GLib.InitiallyUnowned</title>
<polygon fill="none" stroke="black" stroke-width="2" points="261.5,-324 117.5,-324 117.5,-288 261.5,-288 261.5,-324"/>
<text text-anchor="middle" x="189.5" y="-302.3" font-family="Times" font-size="14.00">GLib.InitiallyUnowned</text>
</g>
<!-- GLib.InitiallyUnowned&#45;&gt;Gtk.Widget -->
<g id="edge4" class="edge">
<title>GLib.InitiallyUnowned&#45;&gt;Gtk.Widget</title>
<path fill="none" stroke="black" d="M213.67,-280.48C222.91,-271.11 233.23,-260.64 241.64,-252.1"/>
<polygon fill="black" stroke="black" points="211.08,-278.12 206.56,-287.7 216.07,-283.03 211.08,-278.12"/>
</g>
<!-- GLib.Object -->
<g id="node6" class="node">
<title>GLib.Object</title>
<polygon fill="none" stroke="black" stroke-width="2" points="232,-396 147,-396 147,-360 232,-360 232,-396"/>
<text text-anchor="middle" x="189.5" y="-374.3" font-family="Times" font-size="14.00">GLib.Object</text>
</g>
<!-- GLib.Object&#45;&gt;GLib.InitiallyUnowned -->
<g id="edge5" class="edge">
<title>GLib.Object&#45;&gt;GLib.InitiallyUnowned</title>
<path fill="none" stroke="black" d="M189.5,-349.67C189.5,-341.05 189.5,-331.79 189.5,-324.1"/>
<polygon fill="black" stroke="black" points="186,-349.7 189.5,-359.7 193,-349.7 186,-349.7"/>
</g>
<!-- Gtk.Accessible -->
<g id="node7" class="node">
<title>Gtk.Accessible</title>
<polygon fill="none" stroke="black" points="99,-324 0,-324 0,-288 99,-288 99,-324"/>
<text text-anchor="middle" x="49.5" y="-302.3" font-family="Times" font-size="14.00">Gtk.Accessible</text>
</g>
<!-- Gtk.Accessible&#45;&gt;Gtk.Window -->
<g id="edge9" class="edge">
<title>Gtk.Accessible&#45;&gt;Gtk.Window</title>
<path fill="none" stroke="black" d="M85.7,-282.42C117.52,-263.16 165.49,-235.58 209.5,-216 246.14,-199.7 289.44,-185.28 320.95,-175.61"/>
<polygon fill="black" stroke="black" points="83.48,-279.67 76.76,-287.86 87.12,-285.64 83.48,-279.67"/>
</g>
<!-- Gtk.Accessible&#45;&gt;Gtk.Widget -->
<g id="edge6" class="edge">
<title>Gtk.Accessible&#45;&gt;Gtk.Widget</title>
<path fill="none" stroke="black" d="M108.69,-285.18C143.78,-273.42 187.34,-258.83 218.42,-248.42"/>
<polygon fill="black" stroke="black" points="107.4,-281.92 99.03,-288.41 109.62,-288.55 107.4,-281.92"/>
</g>
<!-- Gtk.Buildable -->
<g id="node8" class="node">
<title>Gtk.Buildable</title>
<polygon fill="none" stroke="black" points="373,-324 280,-324 280,-288 373,-288 373,-324"/>
<text text-anchor="middle" x="326.5" y="-302.3" font-family="Times" font-size="14.00">Gtk.Buildable</text>
</g>
<!-- Gtk.Buildable&#45;&gt;Gtk.Window -->
<g id="edge10" class="edge">
<title>Gtk.Buildable&#45;&gt;Gtk.Window</title>
<path fill="none" stroke="black" d="M333.71,-278.06C341.41,-249.28 353.39,-204.53 359.9,-180.19"/>
<polygon fill="black" stroke="black" points="330.29,-277.31 331.08,-287.87 337.05,-279.12 330.29,-277.31"/>
</g>
<!-- Gtk.Buildable&#45;&gt;Gtk.Widget -->
<g id="edge7" class="edge">
<title>Gtk.Buildable&#45;&gt;Gtk.Widget</title>
<path fill="none" stroke="black" d="M302.68,-280.48C293.58,-271.11 283.4,-260.64 275.12,-252.1"/>
<polygon fill="black" stroke="black" points="300.21,-282.96 309.69,-287.7 305.23,-278.09 300.21,-282.96"/>
</g>
<!-- Gtk.ConstraintTarget -->
<g id="node9" class="node">
<title>Gtk.ConstraintTarget</title>
<polygon fill="none" stroke="black" points="522,-324 391,-324 391,-288 522,-288 522,-324"/>
<text text-anchor="middle" x="456.5" y="-302.3" font-family="Times" font-size="14.00">Gtk.ConstraintTarget</text>
</g>
<!-- Gtk.ConstraintTarget&#45;&gt;Gtk.Window -->
<g id="edge11" class="edge">
<title>Gtk.ConstraintTarget&#45;&gt;Gtk.Window</title>
<path fill="none" stroke="black" d="M414.58,-282.42C402.92,-274.26 391.33,-264.04 383.5,-252 369.2,-230.01 365.46,-199.12 364.59,-180.11"/>
<polygon fill="black" stroke="black" points="412.75,-285.4 423.02,-287.99 416.6,-279.56 412.75,-285.4"/>
</g>
<!-- Gtk.ConstraintTarget&#45;&gt;Gtk.Widget -->
<g id="edge8" class="edge">
<title>Gtk.ConstraintTarget&#45;&gt;Gtk.Widget</title>
<path fill="none" stroke="black" d="M398.59,-284.53C366.45,-273.16 327.29,-259.32 298.55,-249.16"/>
<polygon fill="black" stroke="black" points="397.72,-287.93 408.32,-287.97 400.06,-281.33 397.72,-287.93"/>
</g>
<!-- Gtk.Native -->
<g id="node10" class="node">
<title>Gtk.Native</title>
<polygon fill="none" stroke="black" points="470,-252 393,-252 393,-216 470,-216 470,-252"/>
<text text-anchor="middle" x="431.5" y="-230.3" font-family="Times" font-size="14.00">Gtk.Native</text>
</g>
<!-- Gtk.Native&#45;&gt;Gtk.Window -->
<g id="edge12" class="edge">
<title>Gtk.Native&#45;&gt;Gtk.Window</title>
<path fill="none" stroke="black" d="M407.76,-208.2C398.86,-198.9 388.96,-188.55 380.87,-180.1"/>
<polygon fill="black" stroke="black" points="405.5,-210.89 414.94,-215.7 410.55,-206.05 405.5,-210.89"/>
</g>
<!-- Gtk.Root -->
<g id="node11" class="node">
<title>Gtk.Root</title>
<polygon fill="none" stroke="black" points="555,-252 488,-252 488,-216 555,-216 555,-252"/>
<text text-anchor="middle" x="521.5" y="-230.3" font-family="Times" font-size="14.00">Gtk.Root</text>
</g>
<!-- Gtk.Root&#45;&gt;Gtk.Window -->
<g id="edge13" class="edge">
<title>Gtk.Root&#45;&gt;Gtk.Window</title>
<path fill="none" stroke="black" d="M478.38,-213.78C454.73,-203.23 425.67,-190.27 402.82,-180.08"/>
<polygon fill="black" stroke="black" points="477.26,-217.11 487.82,-217.98 480.11,-210.71 477.26,-217.11"/>
</g>
<!-- Gtk.ShortcutManager -->
<g id="node12" class="node">
<title>Gtk.ShortcutManager</title>
<polygon fill="none" stroke="black" points="708,-252 573,-252 573,-216 708,-216 708,-252"/>
<text text-anchor="middle" x="640.5" y="-230.3" font-family="Times" font-size="14.00">Gtk.ShortcutManager</text>
</g>
<!-- Gtk.ShortcutManager&#45;&gt;Gtk.Window -->
<g id="edge14" class="edge">
<title>Gtk.ShortcutManager&#45;&gt;Gtk.Window</title>
<path fill="none" stroke="black" d="M563.5,-213.47C513.38,-200.76 449.83,-184.64 408.21,-174.08"/>
<polygon fill="black" stroke="black" points="562.78,-216.9 573.34,-215.97 564.5,-210.11 562.78,-216.9"/>
</g>
</g>
</svg>
