<?xml version="1.0" encoding="UTF-8" standalone="no"?>
<!DOCTYPE svg PUBLIC "-//W3C//DTD SVG 1.1//EN"
 "http://www.w3.org/Graphics/SVG/1.1/DTD/svg11.dtd">
<!-- Generated by graphviz version 2.43.0 (0)
 -->
<!-- Title: He.SettingsWindow Pages: 1 -->
<svg width="583pt" height="404pt"
 viewBox="0.00 0.00 583.00 404.00" xmlns="http://www.w3.org/2000/svg" xmlns:xlink="http://www.w3.org/1999/xlink">
<g id="graph0" class="graph" transform="scale(1 1) rotate(0) translate(4 400)">
<title>He.SettingsWindow</title>
<polygon fill="white" stroke="transparent" points="-4,4 -4,-400 579,-400 579,4 -4,4"/>
<!-- He.SettingsWindow -->
<g id="node1" class="node">
<title>He.SettingsWindow</title>
<g id="a_node1"><a xlink:href="He.SettingsWindow.html" xlink:title="He.SettingsWindow">
<polygon fill="none" stroke="black" stroke-width="2" points="503.5,-36 377.5,-36 377.5,0 503.5,0 503.5,-36"/>
<text text-anchor="middle" x="440.5" y="-14.3" font-family="Times" font-size="14.00">He.SettingsWindow</text>
</a>
</g>
</g>
<!-- He.Window -->
<g id="node2" class="node">
<title>He.Window</title>
<g id="a_node2"><a xlink:href="He.Window.html" xlink:title="He.Window">
<polygon fill="none" stroke="black" stroke-width="2" points="447,-108 364,-108 364,-72 447,-72 447,-108"/>
<text text-anchor="middle" x="405.5" y="-86.3" font-family="Times" font-size="14.00">He.Window</text>
</a>
</g>
</g>
<!-- He.Window&#45;&gt;He.SettingsWindow -->
<g id="edge1" class="edge">
<title>He.Window&#45;&gt;He.SettingsWindow</title>
<path fill="none" stroke="black" d="M418.74,-62.51C423.17,-53.67 427.98,-44.04 431.95,-36.1"/>
<polygon fill="black" stroke="black" points="415.49,-61.19 414.15,-71.7 421.75,-64.32 415.49,-61.19"/>
</g>
<!-- Gtk.Window -->
<g id="node3" class="node">
<title>Gtk.Window</title>
<polygon fill="none" stroke="black" stroke-width="2" points="380,-180 293,-180 293,-144 380,-144 380,-180"/>
<text text-anchor="middle" x="336.5" y="-158.3" font-family="Times" font-size="14.00">Gtk.Window</text>
</g>
<!-- Gtk.Window&#45;&gt;He.Window -->
<g id="edge2" class="edge">
<title>Gtk.Window&#45;&gt;He.Window</title>
<path fill="none" stroke="black" d="M360.67,-136.48C369.91,-127.11 380.23,-116.64 388.64,-108.1"/>
<polygon fill="black" stroke="black" points="358.08,-134.12 353.56,-143.7 363.07,-139.03 358.08,-134.12"/>
</g>
<!-- Gtk.Widget -->
<g id="node4" class="node">
<title>Gtk.Widget</title>
<polygon fill="none" stroke="black" stroke-width="2" points="439.5,-252 359.5,-252 359.5,-216 439.5,-216 439.5,-252"/>
<text text-anchor="middle" x="399.5" y="-230.3" font-family="Times" font-size="14.00">Gtk.Widget</text>
</g>
<!-- Gtk.Widget&#45;&gt;Gtk.Window -->
<g id="edge3" class="edge">
<title>Gtk.Widget&#45;&gt;Gtk.Window</title>
<path fill="none" stroke="black" d="M377.18,-208.2C368.81,-198.9 359.5,-188.55 351.89,-180.1"/>
<polygon fill="black" stroke="black" points="374.64,-210.61 383.93,-215.7 379.84,-205.92 374.64,-210.61"/>
</g>
<!-- GLib.InitiallyUnowned -->
<g id="node5" class="node">
<title>GLib.InitiallyUnowned</title>
<polygon fill="none" stroke="black" stroke-width="2" points="346.5,-324 202.5,-324 202.5,-288 346.5,-288 346.5,-324"/>
<text text-anchor="middle" x="274.5" y="-302.3" font-family="Times" font-size="14.00">GLib.InitiallyUnowned</text>
</g>
<!-- GLib.InitiallyUnowned&#45;&gt;Gtk.Widget -->
<g id="edge4" class="edge">
<title>GLib.InitiallyUnowned&#45;&gt;Gtk.Widget</title>
<path fill="none" stroke="black" d="M314.04,-282.86C331.74,-272.95 352.29,-261.44 368.8,-252.19"/>
<polygon fill="black" stroke="black" points="312.09,-279.94 305.08,-287.88 315.51,-286.04 312.09,-279.94"/>
</g>
<!-- GLib.Object -->
<g id="node6" class="node">
<title>GLib.Object</title>
<polygon fill="none" stroke="black" stroke-width="2" points="317,-396 232,-396 232,-360 317,-360 317,-396"/>
<text text-anchor="middle" x="274.5" y="-374.3" font-family="Times" font-size="14.00">GLib.Object</text>
</g>
<!-- GLib.Object&#45;&gt;GLib.InitiallyUnowned -->
<g id="edge5" class="edge">
<title>GLib.Object&#45;&gt;GLib.InitiallyUnowned</title>
<path fill="none" stroke="black" d="M274.5,-349.67C274.5,-341.05 274.5,-331.79 274.5,-324.1"/>
<polygon fill="black" stroke="black" points="271,-349.7 274.5,-359.7 278,-349.7 271,-349.7"/>
</g>
<!-- Gtk.Accessible -->
<g id="node7" class="node">
<title>Gtk.Accessible</title>
<polygon fill="none" stroke="black" points="464,-324 365,-324 365,-288 464,-288 464,-324"/>
<text text-anchor="middle" x="414.5" y="-302.3" font-family="Times" font-size="14.00">Gtk.Accessible</text>
</g>
<!-- Gtk.Accessible&#45;&gt;Gtk.Window -->
<g id="edge9" class="edge">
<title>Gtk.Accessible&#45;&gt;Gtk.Window</title>
<path fill="none" stroke="black" d="M435.9,-280C449.05,-261.44 461.16,-236 448.5,-216 433.48,-192.28 404.67,-178.97 380.03,-171.62"/>
<polygon fill="black" stroke="black" points="433.09,-277.91 429.87,-288 438.68,-282.12 433.09,-277.91"/>
</g>
<!-- Gtk.Accessible&#45;&gt;Gtk.Widget -->
<g id="edge6" class="edge">
<title>Gtk.Accessible&#45;&gt;Gtk.Widget</title>
<path fill="none" stroke="black" d="M408.64,-277.67C406.8,-269.05 404.81,-259.79 403.17,-252.1"/>
<polygon fill="black" stroke="black" points="405.27,-278.65 410.79,-287.7 412.12,-277.19 405.27,-278.65"/>
</g>
<!-- Gtk.Buildable -->
<g id="node8" class="node">
<title>Gtk.Buildable</title>
<polygon fill="none" stroke="black" points="575,-324 482,-324 482,-288 575,-288 575,-324"/>
<text text-anchor="middle" x="528.5" y="-302.3" font-family="Times" font-size="14.00">Gtk.Buildable</text>
</g>
<!-- Gtk.Buildable&#45;&gt;He.SettingsWindow -->
<g id="edge15" class="edge">
<title>Gtk.Buildable&#45;&gt;He.SettingsWindow</title>
<path fill="none" stroke="black" d="M520.21,-278.06C502.35,-220 460.63,-84.41 445.83,-36.31"/>
<polygon fill="black" stroke="black" points="516.97,-279.44 523.26,-287.97 523.66,-277.38 516.97,-279.44"/>
</g>
<!-- Gtk.Buildable&#45;&gt;Gtk.Window -->
<g id="edge10" class="edge">
<title>Gtk.Buildable&#45;&gt;Gtk.Window</title>
<path fill="none" stroke="black" d="M514.89,-278.72C503.64,-259.19 486.04,-233.06 464.5,-216 439.71,-196.36 406.61,-182.91 380.28,-174.48"/>
<polygon fill="black" stroke="black" points="511.98,-280.68 519.9,-287.72 518.09,-277.28 511.98,-280.68"/>
</g>
<!-- Gtk.Buildable&#45;&gt;Gtk.Widget -->
<g id="edge7" class="edge">
<title>Gtk.Buildable&#45;&gt;Gtk.Widget</title>
<path fill="none" stroke="black" d="M487.95,-283C469.63,-273.05 448.3,-261.48 431.18,-252.19"/>
<polygon fill="black" stroke="black" points="486.48,-286.18 496.94,-287.88 489.82,-280.03 486.48,-286.18"/>
</g>
<!-- Gtk.ConstraintTarget -->
<g id="node9" class="node">
<title>Gtk.ConstraintTarget</title>
<polygon fill="none" stroke="black" points="131,-324 0,-324 0,-288 131,-288 131,-324"/>
<text text-anchor="middle" x="65.5" y="-302.3" font-family="Times" font-size="14.00">Gtk.ConstraintTarget</text>
</g>
<!-- Gtk.ConstraintTarget&#45;&gt;Gtk.Window -->
<g id="edge11" class="edge">
<title>Gtk.ConstraintTarget&#45;&gt;Gtk.Window</title>
<path fill="none" stroke="black" d="M36.78,-280.57C18.04,-261.71 -0.12,-235.6 16.5,-216 51.42,-174.82 213.56,-165.6 292.75,-163.56"/>
<polygon fill="black" stroke="black" points="34.55,-283.28 44.19,-287.67 39.39,-278.23 34.55,-283.28"/>
</g>
<!-- Gtk.ConstraintTarget&#45;&gt;Gtk.Widget -->
<g id="edge8" class="edge">
<title>Gtk.ConstraintTarget&#45;&gt;Gtk.Widget</title>
<path fill="none" stroke="black" d="M141.36,-294.07C199.18,-284.98 280.51,-270.54 350.5,-252 353.37,-251.24 356.32,-250.39 359.27,-249.49"/>
<polygon fill="black" stroke="black" points="140.55,-290.65 131.21,-295.65 141.62,-297.57 140.55,-290.65"/>
</g>
<!-- Gtk.Native -->
<g id="node10" class="node">
<title>Gtk.Native</title>
<polygon fill="none" stroke="black" points="103,-252 26,-252 26,-216 103,-216 103,-252"/>
<text text-anchor="middle" x="64.5" y="-230.3" font-family="Times" font-size="14.00">Gtk.Native</text>
</g>
<!-- Gtk.Native&#45;&gt;Gtk.Window -->
<g id="edge12" class="edge">
<title>Gtk.Native&#45;&gt;Gtk.Window</title>
<path fill="none" stroke="black" d="M113.07,-215.69C180.65,-195.95 249.5,-180.72 292.97,-171.69"/>
<polygon fill="black" stroke="black" points="111.71,-212.44 103.11,-218.63 113.69,-219.15 111.71,-212.44"/>
</g>
<!-- Gtk.Root -->
<g id="node11" class="node">
<title>Gtk.Root</title>
<polygon fill="none" stroke="black" points="188,-252 121,-252 121,-216 188,-216 188,-252"/>
<text text-anchor="middle" x="154.5" y="-230.3" font-family="Times" font-size="14.00">Gtk.Root</text>
</g>
<!-- Gtk.Root&#45;&gt;Gtk.Window -->
<g id="edge13" class="edge">
<title>Gtk.Root&#45;&gt;Gtk.Window</title>
<path fill="none" stroke="black" d="M197.77,-215.53C234.34,-201.26 267.38,-188.77 292.89,-179.22"/>
<polygon fill="black" stroke="black" points="196.44,-212.3 188.4,-219.2 198.99,-218.82 196.44,-212.3"/>
</g>
<!-- Gtk.ShortcutManager -->
<g id="node12" class="node">
<title>Gtk.ShortcutManager</title>
<polygon fill="none" stroke="black" points="341,-252 206,-252 206,-216 341,-216 341,-252"/>
<text text-anchor="middle" x="273.5" y="-230.3" font-family="Times" font-size="14.00">Gtk.ShortcutManager</text>
</g>
<!-- Gtk.ShortcutManager&#45;&gt;Gtk.Window -->
<g id="edge14" class="edge">
<title>Gtk.ShortcutManager&#45;&gt;Gtk.Window</title>
<path fill="none" stroke="black" d="M295.82,-208.2C304.19,-198.9 313.5,-188.55 321.11,-180.1"/>
<polygon fill="black" stroke="black" points="293.16,-205.92 289.07,-215.7 298.36,-210.61 293.16,-205.92"/>
</g>
</g>
</svg>
