<?xml version="1.0" encoding="UTF-8" standalone="no"?>
<!DOCTYPE svg PUBLIC "-//W3C//DTD SVG 1.1//EN"
 "http://www.w3.org/Graphics/SVG/1.1/DTD/svg11.dtd">
<!-- Generated by graphviz version 2.43.0 (0)
 -->
<!-- Title: He.TextButton Pages: 1 -->
<svg width="530pt" height="404pt"
 viewBox="0.00 0.00 530.00 404.00" xmlns="http://www.w3.org/2000/svg" xmlns:xlink="http://www.w3.org/1999/xlink">
<g id="graph0" class="graph" transform="scale(1 1) rotate(0) translate(4 400)">
<title>He.TextButton</title>
<polygon fill="white" stroke="transparent" points="-4,4 -4,-400 526,-400 526,4 -4,4"/>
<!-- He.TextButton -->
<g id="node1" class="node">
<title>He.TextButton</title>
<g id="a_node1"><a xlink:href="He.TextButton.html" xlink:title="He.TextButton">
<polygon fill="none" stroke="black" stroke-width="2" points="419,-36 322,-36 322,0 419,0 419,-36"/>
<text text-anchor="middle" x="370.5" y="-14.3" font-family="Times" font-size="14.00">He.TextButton</text>
</a>
</g>
</g>
<!-- He.Button -->
<g id="node2" class="node">
<title>He.Button</title>
<g id="a_node2"><a xlink:href="He.Button.html" xlink:title="He.Button">
<polygon fill="none" stroke="black" stroke-width="2" points="407,-108 334,-108 334,-72 407,-72 407,-108"/>
<text text-anchor="middle" x="370.5" y="-86.3" font-family="Times" font-size="14.00">He.Button</text>
</a>
</g>
</g>
<!-- He.Button&#45;&gt;He.TextButton -->
<g id="edge1" class="edge">
<title>He.Button&#45;&gt;He.TextButton</title>
<path fill="none" stroke="black" d="M370.5,-61.67C370.5,-53.05 370.5,-43.79 370.5,-36.1"/>
<polygon fill="black" stroke="black" points="367,-61.7 370.5,-71.7 374,-61.7 367,-61.7"/>
</g>
<!-- Gtk.Button -->
<g id="node3" class="node">
<title>Gtk.Button</title>
<polygon fill="none" stroke="black" stroke-width="2" points="371,-180 294,-180 294,-144 371,-144 371,-180"/>
<text text-anchor="middle" x="332.5" y="-158.3" font-family="Times" font-size="14.00">Gtk.Button</text>
</g>
<!-- Gtk.Button&#45;&gt;He.Button -->
<g id="edge2" class="edge">
<title>Gtk.Button&#45;&gt;He.Button</title>
<path fill="none" stroke="black" d="M346.72,-134.8C351.57,-125.87 356.86,-116.13 361.21,-108.1"/>
<polygon fill="black" stroke="black" points="343.59,-133.24 341.89,-143.7 349.74,-136.58 343.59,-133.24"/>
</g>
<!-- Gtk.Widget -->
<g id="node4" class="node">
<title>Gtk.Widget</title>
<polygon fill="none" stroke="black" stroke-width="2" points="338.5,-252 258.5,-252 258.5,-216 338.5,-216 338.5,-252"/>
<text text-anchor="middle" x="298.5" y="-230.3" font-family="Times" font-size="14.00">Gtk.Widget</text>
</g>
<!-- Gtk.Widget&#45;&gt;Gtk.Button -->
<g id="edge3" class="edge">
<title>Gtk.Widget&#45;&gt;Gtk.Button</title>
<path fill="none" stroke="black" d="M311.36,-206.51C315.66,-197.67 320.34,-188.04 324.19,-180.1"/>
<polygon fill="black" stroke="black" points="308.13,-205.17 306.9,-215.7 314.42,-208.23 308.13,-205.17"/>
</g>
<!-- GLib.InitiallyUnowned -->
<g id="node5" class="node">
<title>GLib.InitiallyUnowned</title>
<polygon fill="none" stroke="black" stroke-width="2" points="293.5,-324 149.5,-324 149.5,-288 293.5,-288 293.5,-324"/>
<text text-anchor="middle" x="221.5" y="-302.3" font-family="Times" font-size="14.00">GLib.InitiallyUnowned</text>
</g>
<!-- GLib.InitiallyUnowned&#45;&gt;Gtk.Widget -->
<g id="edge4" class="edge">
<title>GLib.InitiallyUnowned&#45;&gt;Gtk.Widget</title>
<path fill="none" stroke="black" d="M248.17,-280.76C258.55,-271.32 270.21,-260.72 279.69,-252.1"/>
<polygon fill="black" stroke="black" points="245.58,-278.38 240.53,-287.7 250.29,-283.56 245.58,-278.38"/>
</g>
<!-- GLib.Object -->
<g id="node6" class="node">
<title>GLib.Object</title>
<polygon fill="none" stroke="black" stroke-width="2" points="264,-396 179,-396 179,-360 264,-360 264,-396"/>
<text text-anchor="middle" x="221.5" y="-374.3" font-family="Times" font-size="14.00">GLib.Object</text>
</g>
<!-- GLib.Object&#45;&gt;GLib.InitiallyUnowned -->
<g id="edge5" class="edge">
<title>GLib.Object&#45;&gt;GLib.InitiallyUnowned</title>
<path fill="none" stroke="black" d="M221.5,-349.67C221.5,-341.05 221.5,-331.79 221.5,-324.1"/>
<polygon fill="black" stroke="black" points="218,-349.7 221.5,-359.7 225,-349.7 218,-349.7"/>
</g>
<!-- Gtk.Accessible -->
<g id="node7" class="node">
<title>Gtk.Accessible</title>
<polygon fill="none" stroke="black" points="411,-324 312,-324 312,-288 411,-288 411,-324"/>
<text text-anchor="middle" x="361.5" y="-302.3" font-family="Times" font-size="14.00">Gtk.Accessible</text>
</g>
<!-- Gtk.Accessible&#45;&gt;Gtk.Button -->
<g id="edge9" class="edge">
<title>Gtk.Accessible&#45;&gt;Gtk.Button</title>
<path fill="none" stroke="black" d="M358.06,-277.64C355.62,-259.95 352,-236.5 347.5,-216 344.84,-203.86 341.01,-190.38 337.89,-180.05"/>
<polygon fill="black" stroke="black" points="354.63,-278.38 359.42,-287.82 361.57,-277.45 354.63,-278.38"/>
</g>
<!-- Gtk.Accessible&#45;&gt;Gtk.Widget -->
<g id="edge6" class="edge">
<title>Gtk.Accessible&#45;&gt;Gtk.Widget</title>
<path fill="none" stroke="black" d="M339.18,-280.2C330.81,-270.9 321.5,-260.55 313.89,-252.1"/>
<polygon fill="black" stroke="black" points="336.64,-282.61 345.93,-287.7 341.84,-277.92 336.64,-282.61"/>
</g>
<!-- Gtk.Buildable -->
<g id="node8" class="node">
<title>Gtk.Buildable</title>
<polygon fill="none" stroke="black" points="522,-324 429,-324 429,-288 522,-288 522,-324"/>
<text text-anchor="middle" x="475.5" y="-302.3" font-family="Times" font-size="14.00">Gtk.Buildable</text>
</g>
<!-- Gtk.Buildable&#45;&gt;He.Button -->
<g id="edge13" class="edge">
<title>Gtk.Buildable&#45;&gt;He.Button</title>
<path fill="none" stroke="black" d="M462.66,-278.84C440.89,-234.47 397.31,-145.64 378.96,-108.23"/>
<polygon fill="black" stroke="black" points="459.54,-280.41 467.08,-287.85 465.82,-277.33 459.54,-280.41"/>
</g>
<!-- Gtk.Buildable&#45;&gt;Gtk.Button -->
<g id="edge11" class="edge">
<title>Gtk.Buildable&#45;&gt;Gtk.Button</title>
<path fill="none" stroke="black" d="M450.99,-280.66C422.17,-252.05 375.08,-205.28 349.81,-180.19"/>
<polygon fill="black" stroke="black" points="448.69,-283.31 458.25,-287.87 453.62,-278.34 448.69,-283.31"/>
</g>
<!-- Gtk.Buildable&#45;&gt;Gtk.Widget -->
<g id="edge7" class="edge">
<title>Gtk.Buildable&#45;&gt;Gtk.Widget</title>
<path fill="none" stroke="black" d="M422.9,-284.2C395.92,-273.53 363.57,-260.73 338.63,-250.87"/>
<polygon fill="black" stroke="black" points="421.61,-287.45 432.2,-287.88 424.19,-280.94 421.61,-287.45"/>
</g>
<!-- Gtk.ConstraintTarget -->
<g id="node9" class="node">
<title>Gtk.ConstraintTarget</title>
<polygon fill="none" stroke="black" points="131,-324 0,-324 0,-288 131,-288 131,-324"/>
<text text-anchor="middle" x="65.5" y="-302.3" font-family="Times" font-size="14.00">Gtk.ConstraintTarget</text>
</g>
<!-- Gtk.ConstraintTarget&#45;&gt;Gtk.Button -->
<g id="edge12" class="edge">
<title>Gtk.ConstraintTarget&#45;&gt;Gtk.Button</title>
<path fill="none" stroke="black" d="M78.53,-278.86C89.86,-258.76 108.12,-231.83 131.5,-216 181.1,-182.41 250.89,-170.1 293.83,-165.59"/>
<polygon fill="black" stroke="black" points="75.36,-277.36 73.67,-287.82 81.51,-280.7 75.36,-277.36"/>
</g>
<!-- Gtk.ConstraintTarget&#45;&gt;Gtk.Widget -->
<g id="edge8" class="edge">
<title>Gtk.ConstraintTarget&#45;&gt;Gtk.Widget</title>
<path fill="none" stroke="black" d="M137.78,-285.14C171.81,-275.55 212.87,-263.62 249.5,-252 252.42,-251.07 255.43,-250.09 258.45,-249.09"/>
<polygon fill="black" stroke="black" points="136.6,-281.84 127.92,-287.91 138.5,-288.58 136.6,-281.84"/>
</g>
<!-- Gtk.Actionable -->
<g id="node10" class="node">
<title>Gtk.Actionable</title>
<polygon fill="none" stroke="black" points="240.5,-252 140.5,-252 140.5,-216 240.5,-216 240.5,-252"/>
<text text-anchor="middle" x="190.5" y="-230.3" font-family="Times" font-size="14.00">Gtk.Actionable</text>
</g>
<!-- Gtk.Actionable&#45;&gt;Gtk.Button -->
<g id="edge10" class="edge">
<title>Gtk.Actionable&#45;&gt;Gtk.Button</title>
<path fill="none" stroke="black" d="M234.31,-211.4C254.66,-201.37 278.52,-189.61 297.63,-180.19"/>
<polygon fill="black" stroke="black" points="232.66,-208.32 225.24,-215.88 235.75,-214.59 232.66,-208.32"/>
</g>
</g>
</svg>
