<?xml version="1.0" encoding="UTF-8" standalone="no"?>
<!DOCTYPE svg PUBLIC "-//W3C//DTD SVG 1.1//EN"
 "http://www.w3.org/Graphics/SVG/1.1/DTD/svg11.dtd">
<!-- Generated by graphviz version 2.43.0 (0)
 -->
<!-- Title: He.ViewTitle Pages: 1 -->
<svg width="530pt" height="332pt"
 viewBox="0.00 0.00 529.50 332.00" xmlns="http://www.w3.org/2000/svg" xmlns:xlink="http://www.w3.org/1999/xlink">
<g id="graph0" class="graph" transform="scale(1 1) rotate(0) translate(4 328)">
<title>He.ViewTitle</title>
<polygon fill="white" stroke="transparent" points="-4,4 -4,-328 525.5,-328 525.5,4 -4,4"/>
<!-- He.ViewTitle -->
<g id="node1" class="node">
<title>He.ViewTitle</title>
<g id="a_node1"><a xlink:href="He.ViewTitle.html" xlink:title="He.ViewTitle">
<polygon fill="none" stroke="black" stroke-width="2" points="492,-36 402,-36 402,0 492,0 492,-36"/>
<text text-anchor="middle" x="447" y="-14.3" font-family="Times" font-size="14.00">He.ViewTitle</text>
</a>
</g>
</g>
<!-- He.Bin -->
<g id="node2" class="node">
<title>He.Bin</title>
<g id="a_node2"><a xlink:href="He.Bin.html" xlink:title="He.Bin">
<polygon fill="none" stroke="black" stroke-width="2" points="447,-108 391,-108 391,-72 447,-72 447,-108"/>
<text text-anchor="middle" x="419" y="-86.3" font-family="Times" font-size="14.00">He.Bin</text>
</a>
</g>
</g>
<!-- He.Bin&#45;&gt;He.ViewTitle -->
<g id="edge1" class="edge">
<title>He.Bin&#45;&gt;He.ViewTitle</title>
<path fill="none" stroke="black" d="M429.71,-62.23C433.22,-53.46 437.02,-43.96 440.16,-36.1"/>
<polygon fill="black" stroke="black" points="426.39,-61.11 425.92,-71.7 432.88,-63.71 426.39,-61.11"/>
</g>
<!-- Gtk.Widget -->
<g id="node3" class="node">
<title>Gtk.Widget</title>
<polygon fill="none" stroke="black" stroke-width="2" points="385,-180 305,-180 305,-144 385,-144 385,-180"/>
<text text-anchor="middle" x="345" y="-158.3" font-family="Times" font-size="14.00">Gtk.Widget</text>
</g>
<!-- Gtk.Widget&#45;&gt;He.Bin -->
<g id="edge2" class="edge">
<title>Gtk.Widget&#45;&gt;He.Bin</title>
<path fill="none" stroke="black" d="M370.63,-136.76C380.61,-127.32 391.81,-116.72 400.92,-108.1"/>
<polygon fill="black" stroke="black" points="368.15,-134.28 363.29,-143.7 372.96,-139.37 368.15,-134.28"/>
</g>
<!-- GLib.InitiallyUnowned -->
<g id="node4" class="node">
<title>GLib.InitiallyUnowned</title>
<polygon fill="none" stroke="black" stroke-width="2" points="144,-252 0,-252 0,-216 144,-216 144,-252"/>
<text text-anchor="middle" x="72" y="-230.3" font-family="Times" font-size="14.00">GLib.InitiallyUnowned</text>
</g>
<!-- GLib.InitiallyUnowned&#45;&gt;Gtk.Widget -->
<g id="edge3" class="edge">
<title>GLib.InitiallyUnowned&#45;&gt;Gtk.Widget</title>
<path fill="none" stroke="black" d="M148.41,-213.41C199.26,-200.37 264.01,-183.77 305,-173.26"/>
<polygon fill="black" stroke="black" points="147.25,-210.09 138.43,-215.97 148.99,-216.87 147.25,-210.09"/>
</g>
<!-- GLib.Object -->
<g id="node5" class="node">
<title>GLib.Object</title>
<polygon fill="none" stroke="black" stroke-width="2" points="114.5,-324 29.5,-324 29.5,-288 114.5,-288 114.5,-324"/>
<text text-anchor="middle" x="72" y="-302.3" font-family="Times" font-size="14.00">GLib.Object</text>
</g>
<!-- GLib.Object&#45;&gt;GLib.InitiallyUnowned -->
<g id="edge4" class="edge">
<title>GLib.Object&#45;&gt;GLib.InitiallyUnowned</title>
<path fill="none" stroke="black" d="M72,-277.67C72,-269.05 72,-259.79 72,-252.1"/>
<polygon fill="black" stroke="black" points="68.5,-277.7 72,-287.7 75.5,-277.7 68.5,-277.7"/>
</g>
<!-- Gtk.Accessible -->
<g id="node6" class="node">
<title>Gtk.Accessible</title>
<polygon fill="none" stroke="black" points="261.5,-252 162.5,-252 162.5,-216 261.5,-216 261.5,-252"/>
<text text-anchor="middle" x="212" y="-230.3" font-family="Times" font-size="14.00">Gtk.Accessible</text>
</g>
<!-- Gtk.Accessible&#45;&gt;Gtk.Widget -->
<g id="edge5" class="edge">
<title>Gtk.Accessible&#45;&gt;Gtk.Widget</title>
<path fill="none" stroke="black" d="M253.55,-211.13C272.5,-201.16 294.61,-189.52 312.34,-180.19"/>
<polygon fill="black" stroke="black" points="251.75,-208.12 244.54,-215.88 255.01,-214.32 251.75,-208.12"/>
</g>
<!-- Gtk.Buildable -->
<g id="node7" class="node">
<title>Gtk.Buildable</title>
<polygon fill="none" stroke="black" points="521.5,-252 428.5,-252 428.5,-216 521.5,-216 521.5,-252"/>
<text text-anchor="middle" x="475" y="-230.3" font-family="Times" font-size="14.00">Gtk.Buildable</text>
</g>
<!-- Gtk.Buildable&#45;&gt;He.ViewTitle -->
<g id="edge9" class="edge">
<title>Gtk.Buildable&#45;&gt;He.ViewTitle</title>
<path fill="none" stroke="black" d="M472.19,-205.6C468.81,-173.52 462.73,-118.8 456,-72 454.27,-59.99 451.98,-46.51 450.14,-36.15"/>
<polygon fill="black" stroke="black" points="468.72,-205.99 473.24,-215.57 475.68,-205.26 468.72,-205.99"/>
</g>
<!-- Gtk.Buildable&#45;&gt;He.Bin -->
<g id="edge8" class="edge">
<title>Gtk.Buildable&#45;&gt;He.Bin</title>
<path fill="none" stroke="black" d="M464.52,-206.44C453.18,-177.67 435.42,-132.64 425.78,-108.19"/>
<polygon fill="black" stroke="black" points="461.32,-207.85 468.25,-215.87 467.83,-205.28 461.32,-207.85"/>
</g>
<!-- Gtk.Buildable&#45;&gt;Gtk.Widget -->
<g id="edge6" class="edge">
<title>Gtk.Buildable&#45;&gt;Gtk.Widget</title>
<path fill="none" stroke="black" d="M434.39,-211.13C415.87,-201.16 394.26,-189.52 376.92,-180.19"/>
<polygon fill="black" stroke="black" points="432.73,-214.22 443.2,-215.88 436.05,-208.05 432.73,-214.22"/>
</g>
<!-- Gtk.ConstraintTarget -->
<g id="node8" class="node">
<title>Gtk.ConstraintTarget</title>
<polygon fill="none" stroke="black" points="410.5,-252 279.5,-252 279.5,-216 410.5,-216 410.5,-252"/>
<text text-anchor="middle" x="345" y="-230.3" font-family="Times" font-size="14.00">Gtk.ConstraintTarget</text>
</g>
<!-- Gtk.ConstraintTarget&#45;&gt;Gtk.Widget -->
<g id="edge7" class="edge">
<title>Gtk.ConstraintTarget&#45;&gt;Gtk.Widget</title>
<path fill="none" stroke="black" d="M345,-205.67C345,-197.05 345,-187.79 345,-180.1"/>
<polygon fill="black" stroke="black" points="341.5,-205.7 345,-215.7 348.5,-205.7 341.5,-205.7"/>
</g>
</g>
</svg>
