<?xml version="1.0" encoding="UTF-8" standalone="no"?>
<!DOCTYPE svg PUBLIC "-//W3C//DTD SVG 1.1//EN"
 "http://www.w3.org/Graphics/SVG/1.1/DTD/svg11.dtd">
<!-- Generated by graphviz version 2.43.0 (0)
 -->
<!-- Title: He.Window Pages: 1 -->
<svg width="716pt" height="332pt"
 viewBox="0.00 0.00 716.00 332.00" xmlns="http://www.w3.org/2000/svg" xmlns:xlink="http://www.w3.org/1999/xlink">
<g id="graph0" class="graph" transform="scale(1 1) rotate(0) translate(4 328)">
<title>He.Window</title>
<polygon fill="white" stroke="transparent" points="-4,4 -4,-328 712,-328 712,4 -4,4"/>
<!-- He.Window -->
<g id="node1" class="node">
<title>He.Window</title>
<g id="a_node1"><a xlink:href="He.Window.html" xlink:title="He.Window">
<polygon fill="none" stroke="black" stroke-width="2" points="406,-36 323,-36 323,0 406,0 406,-36"/>
<text text-anchor="middle" x="364.5" y="-14.3" font-family="Times" font-size="14.00">He.Window</text>
</a>
</g>
</g>
<!-- Gtk.Window -->
<g id="node2" class="node">
<title>Gtk.Window</title>
<polygon fill="none" stroke="black" stroke-width="2" points="408,-108 321,-108 321,-72 408,-72 408,-108"/>
<text text-anchor="middle" x="364.5" y="-86.3" font-family="Times" font-size="14.00">Gtk.Window</text>
</g>
<!-- Gtk.Window&#45;&gt;He.Window -->
<g id="edge1" class="edge">
<title>Gtk.Window&#45;&gt;He.Window</title>
<path fill="none" stroke="black" d="M364.5,-61.67C364.5,-53.05 364.5,-43.79 364.5,-36.1"/>
<polygon fill="black" stroke="black" points="361,-61.7 364.5,-71.7 368,-61.7 361,-61.7"/>
</g>
<!-- Gtk.Widget -->
<g id="node3" class="node">
<title>Gtk.Widget</title>
<polygon fill="none" stroke="black" stroke-width="2" points="298.5,-180 218.5,-180 218.5,-144 298.5,-144 298.5,-180"/>
<text text-anchor="middle" x="258.5" y="-158.3" font-family="Times" font-size="14.00">Gtk.Widget</text>
</g>
<!-- Gtk.Widget&#45;&gt;Gtk.Window -->
<g id="edge2" class="edge">
<title>Gtk.Widget&#45;&gt;Gtk.Window</title>
<path fill="none" stroke="black" d="M292.86,-138.31C307.68,-128.53 324.72,-117.27 338.47,-108.19"/>
<polygon fill="black" stroke="black" points="290.85,-135.44 284.43,-143.88 294.7,-141.29 290.85,-135.44"/>
</g>
<!-- GLib.InitiallyUnowned -->
<g id="node4" class="node">
<title>GLib.InitiallyUnowned</title>
<polygon fill="none" stroke="black" stroke-width="2" points="261.5,-252 117.5,-252 117.5,-216 261.5,-216 261.5,-252"/>
<text text-anchor="middle" x="189.5" y="-230.3" font-family="Times" font-size="14.00">GLib.InitiallyUnowned</text>
</g>
<!-- GLib.InitiallyUnowned&#45;&gt;Gtk.Widget -->
<g id="edge3" class="edge">
<title>GLib.InitiallyUnowned&#45;&gt;Gtk.Widget</title>
<path fill="none" stroke="black" d="M213.67,-208.48C222.91,-199.11 233.23,-188.64 241.64,-180.1"/>
<polygon fill="black" stroke="black" points="211.08,-206.12 206.56,-215.7 216.07,-211.03 211.08,-206.12"/>
</g>
<!-- GLib.Object -->
<g id="node5" class="node">
<title>GLib.Object</title>
<polygon fill="none" stroke="black" stroke-width="2" points="232,-324 147,-324 147,-288 232,-288 232,-324"/>
<text text-anchor="middle" x="189.5" y="-302.3" font-family="Times" font-size="14.00">GLib.Object</text>
</g>
<!-- GLib.Object&#45;&gt;GLib.InitiallyUnowned -->
<g id="edge4" class="edge">
<title>GLib.Object&#45;&gt;GLib.InitiallyUnowned</title>
<path fill="none" stroke="black" d="M189.5,-277.67C189.5,-269.05 189.5,-259.79 189.5,-252.1"/>
<polygon fill="black" stroke="black" points="186,-277.7 189.5,-287.7 193,-277.7 186,-277.7"/>
</g>
<!-- Gtk.Accessible -->
<g id="node6" class="node">
<title>Gtk.Accessible</title>
<polygon fill="none" stroke="black" points="99,-252 0,-252 0,-216 99,-216 99,-252"/>
<text text-anchor="middle" x="49.5" y="-230.3" font-family="Times" font-size="14.00">Gtk.Accessible</text>
</g>
<!-- Gtk.Accessible&#45;&gt;Gtk.Window -->
<g id="edge8" class="edge">
<title>Gtk.Accessible&#45;&gt;Gtk.Window</title>
<path fill="none" stroke="black" d="M85.7,-210.42C117.52,-191.16 165.49,-163.58 209.5,-144 246.14,-127.7 289.44,-113.28 320.95,-103.61"/>
<polygon fill="black" stroke="black" points="83.48,-207.67 76.76,-215.86 87.12,-213.64 83.48,-207.67"/>
</g>
<!-- Gtk.Accessible&#45;&gt;Gtk.Widget -->
<g id="edge5" class="edge">
<title>Gtk.Accessible&#45;&gt;Gtk.Widget</title>
<path fill="none" stroke="black" d="M108.69,-213.18C143.78,-201.42 187.34,-186.83 218.42,-176.42"/>
<polygon fill="black" stroke="black" points="107.4,-209.92 99.03,-216.41 109.62,-216.55 107.4,-209.92"/>
</g>
<!-- Gtk.Buildable -->
<g id="node7" class="node">
<title>Gtk.Buildable</title>
<polygon fill="none" stroke="black" points="373,-252 280,-252 280,-216 373,-216 373,-252"/>
<text text-anchor="middle" x="326.5" y="-230.3" font-family="Times" font-size="14.00">Gtk.Buildable</text>
</g>
<!-- Gtk.Buildable&#45;&gt;Gtk.Window -->
<g id="edge9" class="edge">
<title>Gtk.Buildable&#45;&gt;Gtk.Window</title>
<path fill="none" stroke="black" d="M333.71,-206.06C341.41,-177.28 353.39,-132.53 359.9,-108.19"/>
<polygon fill="black" stroke="black" points="330.29,-205.31 331.08,-215.87 337.05,-207.12 330.29,-205.31"/>
</g>
<!-- Gtk.Buildable&#45;&gt;Gtk.Widget -->
<g id="edge6" class="edge">
<title>Gtk.Buildable&#45;&gt;Gtk.Widget</title>
<path fill="none" stroke="black" d="M302.68,-208.48C293.58,-199.11 283.4,-188.64 275.12,-180.1"/>
<polygon fill="black" stroke="black" points="300.21,-210.96 309.69,-215.7 305.23,-206.09 300.21,-210.96"/>
</g>
<!-- Gtk.ConstraintTarget -->
<g id="node8" class="node">
<title>Gtk.ConstraintTarget</title>
<polygon fill="none" stroke="black" points="522,-252 391,-252 391,-216 522,-216 522,-252"/>
<text text-anchor="middle" x="456.5" y="-230.3" font-family="Times" font-size="14.00">Gtk.ConstraintTarget</text>
</g>
<!-- Gtk.ConstraintTarget&#45;&gt;Gtk.Window -->
<g id="edge10" class="edge">
<title>Gtk.ConstraintTarget&#45;&gt;Gtk.Window</title>
<path fill="none" stroke="black" d="M414.58,-210.42C402.92,-202.26 391.33,-192.04 383.5,-180 369.2,-158.01 365.46,-127.12 364.59,-108.11"/>
<polygon fill="black" stroke="black" points="412.75,-213.4 423.02,-215.99 416.6,-207.56 412.75,-213.4"/>
</g>
<!-- Gtk.ConstraintTarget&#45;&gt;Gtk.Widget -->
<g id="edge7" class="edge">
<title>Gtk.ConstraintTarget&#45;&gt;Gtk.Widget</title>
<path fill="none" stroke="black" d="M398.59,-212.53C366.45,-201.16 327.29,-187.32 298.55,-177.16"/>
<polygon fill="black" stroke="black" points="397.72,-215.93 408.32,-215.97 400.06,-209.33 397.72,-215.93"/>
</g>
<!-- Gtk.Native -->
<g id="node9" class="node">
<title>Gtk.Native</title>
<polygon fill="none" stroke="black" points="470,-180 393,-180 393,-144 470,-144 470,-180"/>
<text text-anchor="middle" x="431.5" y="-158.3" font-family="Times" font-size="14.00">Gtk.Native</text>
</g>
<!-- Gtk.Native&#45;&gt;Gtk.Window -->
<g id="edge11" class="edge">
<title>Gtk.Native&#45;&gt;Gtk.Window</title>
<path fill="none" stroke="black" d="M407.76,-136.2C398.86,-126.9 388.96,-116.55 380.87,-108.1"/>
<polygon fill="black" stroke="black" points="405.5,-138.89 414.94,-143.7 410.55,-134.05 405.5,-138.89"/>
</g>
<!-- Gtk.Root -->
<g id="node10" class="node">
<title>Gtk.Root</title>
<polygon fill="none" stroke="black" points="555,-180 488,-180 488,-144 555,-144 555,-180"/>
<text text-anchor="middle" x="521.5" y="-158.3" font-family="Times" font-size="14.00">Gtk.Root</text>
</g>
<!-- Gtk.Root&#45;&gt;Gtk.Window -->
<g id="edge12" class="edge">
<title>Gtk.Root&#45;&gt;Gtk.Window</title>
<path fill="none" stroke="black" d="M478.38,-141.78C454.73,-131.23 425.67,-118.27 402.82,-108.08"/>
<polygon fill="black" stroke="black" points="477.26,-145.11 487.82,-145.98 480.11,-138.71 477.26,-145.11"/>
</g>
<!-- Gtk.ShortcutManager -->
<g id="node11" class="node">
<title>Gtk.ShortcutManager</title>
<polygon fill="none" stroke="black" points="708,-180 573,-180 573,-144 708,-144 708,-180"/>
<text text-anchor="middle" x="640.5" y="-158.3" font-family="Times" font-size="14.00">Gtk.ShortcutManager</text>
</g>
<!-- Gtk.ShortcutManager&#45;&gt;Gtk.Window -->
<g id="edge13" class="edge">
<title>Gtk.ShortcutManager&#45;&gt;Gtk.Window</title>
<path fill="none" stroke="black" d="M563.5,-141.47C513.38,-128.76 449.83,-112.64 408.21,-102.08"/>
<polygon fill="black" stroke="black" points="562.78,-144.9 573.34,-143.97 564.5,-138.11 562.78,-144.9"/>
</g>
</g>
</svg>
