<?xml version="1.0" encoding="UTF-8" standalone="no"?>
<svg
   id="svg10"
   width="16"
   height="16"
   version="1.1"
   viewBox="0 0 16 16"
   sodipodi:docname="bottom-sheet-filled-symbolic.svg"
   inkscape:version="1.3.2 (091e20ef0f, 2023-11-25)"
   xmlns:inkscape="http://www.inkscape.org/namespaces/inkscape"
   xmlns:sodipodi="http://sodipodi.sourceforge.net/DTD/sodipodi-0.dtd"
   xmlns="http://www.w3.org/2000/svg"
   xmlns:svg="http://www.w3.org/2000/svg">
  <defs
     id="defs1" />
  <sodipodi:namedview
     id="namedview1"
     pagecolor="#ffffff"
     bordercolor="#111111"
     borderopacity="1"
     inkscape:showpageshadow="0"
     inkscape:pageopacity="0"
     inkscape:pagecheckerboard="1"
     inkscape:deskcolor="#d1d1d1"
     inkscape:zoom="45.25"
     inkscape:cx="8.0110497"
     inkscape:cy="8"
     inkscape:window-width="2560"
     inkscape:window-height="927"
     inkscape:window-x="0"
     inkscape:window-y="0"
     inkscape:window-maximized="1"
     inkscape:current-layer="svg10"
     showgrid="true">
    <inkscape:grid
       id="grid2"
       units="px"
       originx="0"
       originy="0"
       spacingx="1"
       spacingy="1"
       empcolor="#0099e5"
       empopacity="0.30196078"
       color="#0099e5"
       opacity="0.14901961"
       empspacing="5"
       dotted="false"
       gridanglex="30"
       gridanglez="30"
       visible="true" />
  </sodipodi:namedview>
  <path
     id="rect2"
     style="fill:#241f31;stroke-width:1.04498;stroke-linecap:round;stroke-linejoin:round"
     d="m 2.8,5.8 v 8.4 H 13.2 V 5.8 Z M 5.9342188,7 C 7.3296687,7.00163 8.6046412,6.99429 10,7 10.601882,6.9999297 10.490043,8 10,8 8.6281876,8.0223471 7.1567006,7.9968381 6,8 5.4196115,8 5.4073722,7 5.9342188,7 Z"
     sodipodi:nodetypes="cccccccccc" />
  <path
     id="rect1009"
     style="color:#000000;fill:#241f31;stroke-linecap:round;stroke-linejoin:round;-inkscape-stroke:none"
     d="M 3,1 C 2.4546492,1 2,1.4546492 2,2 V 12.214844 14 c 0,0.204507 0.063197,0.396836 0.171875,0.556641 0.036226,0.05327 0.077589,0.102979 0.1230469,0.148437 0.045458,0.04546 0.095169,0.08682 0.1484375,0.123047 C 2.6031636,14.936803 2.7954934,15 3,15 h 10 c 0.204507,0 0.396836,-0.0632 0.556641,-0.171875 0.05327,-0.03623 0.102979,-0.07759 0.148437,-0.123047 0.04546,-0.04546 0.08682,-0.09517 0.123047,-0.148437 C 13.936803,14.396836 14,14.204507 14,14 V 12.214844 2 C 14,1.4546492 13.545351,1 13,1 Z M 3,2 H 13 V 5 H 3 Z m 0,4 h 10 v 8 H 3 Z"
     sodipodi:nodetypes="sscsssssssscscssscccccccccc" />
</svg>
