<?xml version="1.0" encoding="UTF-8" standalone="no"?>
<svg
   width="16"
   height="16"
   fill="none"
   viewBox="0 0 16 16"
   version="1.1"
   id="svg4"
   sodipodi:docname="com.fyralabs.Helium1.Demo-symbolic.svg"
   inkscape:version="1.3.2 (091e20ef0f, 2023-11-25)"
   xmlns:inkscape="http://www.inkscape.org/namespaces/inkscape"
   xmlns:sodipodi="http://sodipodi.sourceforge.net/DTD/sodipodi-0.dtd"
   xmlns="http://www.w3.org/2000/svg"
   xmlns:svg="http://www.w3.org/2000/svg">
  <defs
     id="defs4" />
  <sodipodi:namedview
     id="namedview4"
     pagecolor="#ffffff"
     bordercolor="#111111"
     borderopacity="1"
     inkscape:showpageshadow="0"
     inkscape:pageopacity="0"
     inkscape:pagecheckerboard="1"
     inkscape:deskcolor="#d1d1d1"
     inkscape:zoom="45.25"
     inkscape:cx="7.9889503"
     inkscape:cy="8"
     inkscape:window-width="2560"
     inkscape:window-height="927"
     inkscape:window-x="0"
     inkscape:window-y="0"
     inkscape:window-maximized="1"
     inkscape:current-layer="svg4" />
  <path
     style="color:#000000;fill:#2d2d2d;-inkscape-stroke:none"
     d="M 7.4296875,1.1582031 C 7.2163468,1.2312464 7.0088528,1.3635637 6.7597656,1.5761719 6.506885,1.7920174 6.2322195,2.0685517 5.84375,2.4570313 L 2.5351563,5.765625 C 2.1466919,6.1540894 1.8701479,6.4287535 1.6542969,6.6816406 1.4416831,6.9307343 1.3093649,7.1382567 1.2363281,7.3515625 c -0.1437447,0.4198498 -0.1437447,0.8770252 0,1.296875 0.073037,0.2133058 0.205355,0.4208282 0.4179688,0.6699219 0.215851,0.2528871 0.492395,0.5275512 0.8808594,0.9160156 L 5.84375,13.542969 c 0.3884714,0.388461 0.6631385,0.665028 0.9160156,0.880859 0.2490806,0.212603 0.4566174,0.344906 0.6699219,0.417969 0.4198284,0.143702 0.8770466,0.143702 1.296875,0 0.2133116,-0.07306 0.4208469,-0.205371 0.6699219,-0.417969 0.2528771,-0.215831 0.5275363,-0.4924 0.9160156,-0.880859 l 3.308594,-3.308594 c 0.388461,-0.3884714 0.665028,-0.6631385 0.880859,-0.9160156 0.212603,-0.2490806 0.344906,-0.4566314 0.417969,-0.6699219 0.143698,-0.4198298 0.143698,-0.8770452 0,-1.296875 C 14.846859,7.138272 14.714556,6.9307212 14.501953,6.6816406 14.286122,6.4287635 14.009555,6.1540964 13.621094,5.765625 L 10.3125,2.4570313 C 9.9240226,2.0685538 9.649365,1.7920174 9.3964844,1.5761719 9.1474028,1.3635685 8.9399104,1.2312488 8.7265625,1.1582031 c -0.4198418,-0.1437332 -0.8770332,-0.1437332 -1.296875,0 z m 0.3242187,0.9453125 c 0.2100376,-0.071907 0.4384,-0.071907 0.6484376,0 0.056412,0.019314 0.1479451,0.065579 0.3457031,0.234375 0.2024189,0.1727741 0.4692601,0.4380101 0.8574219,0.8261719 l 3.3085942,3.3085937 c 0.388137,0.3881479 0.653403,0.6549995 0.826171,0.8574219 0.168797,0.197759 0.215039,0.2892539 0.234375,0.3457031 0.0719,0.2100697 0.0719,0.4383679 0,0.6484376 -0.01934,0.056449 -0.06558,0.1479441 -0.234375,0.3457031 -0.172768,0.2024224 -0.438034,0.469274 -0.826171,0.8574219 L 9.6054688,12.835938 c -0.38816,0.388139 -0.6549995,0.653403 -0.8574219,0.826171 -0.1977646,0.168802 -0.2892551,0.21504 -0.3457031,0.234375 -0.210051,0.0719 -0.4383866,0.0719 -0.6484376,0 C 7.697451,13.877147 7.6059621,13.830906 7.4082031,13.662109 7.2057807,13.489341 6.9389291,13.224075 6.5507812,12.835938 L 3.2421875,9.5273438 C 2.8540327,9.1391889 2.5887842,8.8723343 2.4160156,8.6699219 2.2472298,8.472176 2.2009638,8.3806526 2.1816406,8.3242188 c -0.071915,-0.2100497 -0.071915,-0.4383879 0,-0.6484376 C 2.2009638,7.6193474 2.2472298,7.527824 2.4160156,7.3300781 2.5887842,7.1276657 2.8540327,6.8608111 3.2421875,6.4726562 L 6.5507812,3.1640625 C 6.9389309,2.7759028 7.2057842,2.5106647 7.4082031,2.3378906 7.6059555,2.1690992 7.6974873,2.1228323 7.7539062,2.1035156 Z"
     id="path1" />
  <path
     id="rect1"
     style="fill:#2d2d2d"
     d="m 9,8 c 0.554,0 1,0.446 1,1 0,0.554 -0.446,1 -1,1 C 8.446,10 8,9.554 8,9 8,8.446 8.446,8 9,8 Z" />
  <path
     id="rect2"
     style="fill:#2d2d2d"
     d="M 7,6 C 7.554,6 8,6.446 8,7 8,7.554 7.554,8 7,8 6.446,8 6,7.554 6,7 6,6.446 6.446,6 7,6 Z" />
  <path
     id="rect3"
     style="fill:#2d2d2d;fill-opacity:0.5"
     d="M 7,8 C 7.554,8 8,8.446 8,9 8,9.554 7.554,10 7,10 6.446,10 6,9.554 6,9 6,8.446 6.446,8 7,8 Z" />
  <path
     id="rect4"
     style="fill:#2d2d2d;fill-opacity:0.5"
     d="M 9,6 C 9.554,6 10,6.446 10,7 10,7.554 9.554,8 9,8 8.446,8 8,7.554 8,7 8,6.446 8.446,6 9,6 Z" />
</svg>
