<?xml version="1.0" encoding="UTF-8" standalone="no"?>
<svg
   width="16"
   height="16"
   fill="none"
   viewBox="0 0 16 16"
   version="1.1"
   id="svg4"
   sodipodi:docname="com.fyralabs.Helium1.Demo-filled-symbolic.svg"
   inkscape:version="1.3.2 (091e20ef0f, 2023-11-25)"
   xmlns:inkscape="http://www.inkscape.org/namespaces/inkscape"
   xmlns:sodipodi="http://sodipodi.sourceforge.net/DTD/sodipodi-0.dtd"
   xmlns="http://www.w3.org/2000/svg"
   xmlns:svg="http://www.w3.org/2000/svg">
  <defs
     id="defs4" />
  <sodipodi:namedview
     id="namedview4"
     pagecolor="#ffffff"
     bordercolor="#111111"
     borderopacity="1"
     inkscape:showpageshadow="0"
     inkscape:pageopacity="0"
     inkscape:pagecheckerboard="1"
     inkscape:deskcolor="#d1d1d1"
     inkscape:zoom="45.25"
     inkscape:cx="7.9889503"
     inkscape:cy="8"
     inkscape:window-width="2560"
     inkscape:window-height="927"
     inkscape:window-x="0"
     inkscape:window-y="0"
     inkscape:window-maximized="1"
     inkscape:current-layer="svg4" />
  <path
     id="rect5"
     style="fill:#2d2d2d;stroke-width:1.17463;stroke-linecap:round;stroke-linejoin:round;fill-opacity:0.5"
     d="M 6,6 H 8 V 8 H 6 Z" />
  <path
     id="rect5-3"
     style="fill:#2d2d2d;fill-opacity:0.5;stroke-width:1.17463;stroke-linecap:round;stroke-linejoin:round"
     d="m 8,8 h 2 v 2 H 8 Z" />
  <path
     id="path4"
     style="fill:#2d2d2d;stroke-linecap:round;stroke-linejoin:round"
     d="M 8.078125 1.0507812 C 7.8588677 1.0507812 7.6396074 1.086337 7.4296875 1.1582031 C 7.2163478 1.2312464 7.0088518 1.3635647 6.7597656 1.5761719 C 6.5068865 1.7920164 6.2322175 2.0685536 5.84375 2.4570312 L 2.5351562 5.765625 C 2.1466938 6.1540874 1.8701469 6.428755 1.6542969 6.6816406 C 1.4416841 6.9307333 1.3093649 7.1382577 1.2363281 7.3515625 C 1.0925844 7.7714103 1.0925844 8.2285897 1.2363281 8.6484375 C 1.3093651 8.8617423 1.4416841 9.0692667 1.6542969 9.3183594 C 1.8701469 9.571245 2.1466938 9.8459126 2.5351562 10.234375 L 5.84375 13.542969 C 6.2322194 13.931425 6.50689 14.207997 6.7597656 14.423828 C 7.0088452 14.636431 7.216384 14.768734 7.4296875 14.841797 C 7.8495139 14.985499 8.3067361 14.985499 8.7265625 14.841797 C 8.9398731 14.768737 9.1474104 14.636426 9.3964844 14.423828 C 9.64936 14.207997 9.9240227 13.931423 10.3125 13.542969 L 13.621094 10.234375 C 14.00955 9.8459056 14.286122 9.571235 14.501953 9.3183594 C 14.714556 9.0692798 14.846859 8.861727 14.919922 8.6484375 C 15.06362 8.2286097 15.06362 7.7713903 14.919922 7.3515625 C 14.846859 7.138273 14.714556 6.9307202 14.501953 6.6816406 C 14.286122 6.428765 14.00955 6.1540944 13.621094 5.765625 L 10.3125 2.4570312 C 9.9240246 2.0685557 9.6493635 1.7920164 9.3964844 1.5761719 C 9.1474038 1.3635695 8.9399094 1.2312488 8.7265625 1.1582031 C 8.5166426 1.086337 8.2973823 1.0507813 8.078125 1.0507812 z M 7 6 C 7.5539982 6 8 6.4460018 8 7 C 8 6.4460024 8.4460024 6 9 6 C 9.5539976 6 10 6.4460024 10 7 C 10 7.5539976 9.5539976 8 9 8 C 9.5539994 8 10 8.4460006 10 9 C 10 9.5539994 9.5539994 10 9 10 C 8.4460006 10 8 9.5539994 8 9 C 8 9.5539988 7.5539988 10 7 10 C 6.4460012 10 6 9.5539988 6 9 C 6 8.4460012 6.4460012 8 7 8 C 6.4460018 8 6 7.5539982 6 7 C 6 6.4460018 6.4460018 6 7 6 z M 7 8 C 7.5539988 8 8 8.4460012 8 9 C 8 8.4460006 8.4460006 8 9 8 C 8.4460024 8 8 7.5539976 8 7 C 8 7.5539982 7.5539982 8 7 8 z " />
</svg>
