<?xml version="1.0" encoding="UTF-8" standalone="no"?>
<!DOCTYPE svg PUBLIC "-//W3C//DTD SVG 1.1//EN"
 "http://www.w3.org/Graphics/SVG/1.1/DTD/svg11.dtd">
<!-- Generated by graphviz version 2.43.0 (0)
 -->
<!-- Title: He.MiniContentBlock Pages: 1 -->
<svg width="530pt" height="332pt"
 viewBox="0.00 0.00 530.00 332.00" xmlns="http://www.w3.org/2000/svg" xmlns:xlink="http://www.w3.org/1999/xlink">
<g id="graph0" class="graph" transform="scale(1 1) rotate(0) translate(4 328)">
<title>He.MiniContentBlock</title>
<polygon fill="white" stroke="transparent" points="-4,4 -4,-328 526,-328 526,4 -4,4"/>
<!-- He.MiniContentBlock -->
<g id="node1" class="node">
<title>He.MiniContentBlock</title>
<g id="a_node1"><a xlink:href="He.MiniContentBlock.html" xlink:title="He.MiniContentBlock">
<polygon fill="none" stroke="black" stroke-width="2" points="395.5,-36 257.5,-36 257.5,0 395.5,0 395.5,-36"/>
<text text-anchor="middle" x="326.5" y="-14.3" font-family="Times" font-size="14.00">He.MiniContentBlock</text>
</a>
</g>
</g>
<!-- Gtk.Box -->
<g id="node2" class="node">
<title>Gtk.Box</title>
<polygon fill="none" stroke="black" stroke-width="2" points="358,-108 295,-108 295,-72 358,-72 358,-108"/>
<text text-anchor="middle" x="326.5" y="-86.3" font-family="Times" font-size="14.00">Gtk.Box</text>
</g>
<!-- Gtk.Box&#45;&gt;He.MiniContentBlock -->
<g id="edge1" class="edge">
<title>Gtk.Box&#45;&gt;He.MiniContentBlock</title>
<path fill="none" stroke="black" d="M326.5,-61.67C326.5,-53.05 326.5,-43.79 326.5,-36.1"/>
<polygon fill="black" stroke="black" points="323,-61.7 326.5,-71.7 330,-61.7 323,-61.7"/>
</g>
<!-- Gtk.Widget -->
<g id="node3" class="node">
<title>Gtk.Widget</title>
<polygon fill="none" stroke="black" stroke-width="2" points="298.5,-180 218.5,-180 218.5,-144 298.5,-144 298.5,-180"/>
<text text-anchor="middle" x="258.5" y="-158.3" font-family="Times" font-size="14.00">Gtk.Widget</text>
</g>
<!-- Gtk.Widget&#45;&gt;Gtk.Box -->
<g id="edge2" class="edge">
<title>Gtk.Widget&#45;&gt;Gtk.Box</title>
<path fill="none" stroke="black" d="M282.32,-136.48C291.42,-127.11 301.6,-116.64 309.88,-108.1"/>
<polygon fill="black" stroke="black" points="279.77,-134.09 275.31,-143.7 284.79,-138.96 279.77,-134.09"/>
</g>
<!-- GLib.InitiallyUnowned -->
<g id="node4" class="node">
<title>GLib.InitiallyUnowned</title>
<polygon fill="none" stroke="black" stroke-width="2" points="261.5,-252 117.5,-252 117.5,-216 261.5,-216 261.5,-252"/>
<text text-anchor="middle" x="189.5" y="-230.3" font-family="Times" font-size="14.00">GLib.InitiallyUnowned</text>
</g>
<!-- GLib.InitiallyUnowned&#45;&gt;Gtk.Widget -->
<g id="edge3" class="edge">
<title>GLib.InitiallyUnowned&#45;&gt;Gtk.Widget</title>
<path fill="none" stroke="black" d="M213.67,-208.48C222.91,-199.11 233.23,-188.64 241.64,-180.1"/>
<polygon fill="black" stroke="black" points="211.08,-206.12 206.56,-215.7 216.07,-211.03 211.08,-206.12"/>
</g>
<!-- GLib.Object -->
<g id="node5" class="node">
<title>GLib.Object</title>
<polygon fill="none" stroke="black" stroke-width="2" points="232,-324 147,-324 147,-288 232,-288 232,-324"/>
<text text-anchor="middle" x="189.5" y="-302.3" font-family="Times" font-size="14.00">GLib.Object</text>
</g>
<!-- GLib.Object&#45;&gt;GLib.InitiallyUnowned -->
<g id="edge4" class="edge">
<title>GLib.Object&#45;&gt;GLib.InitiallyUnowned</title>
<path fill="none" stroke="black" d="M189.5,-277.67C189.5,-269.05 189.5,-259.79 189.5,-252.1"/>
<polygon fill="black" stroke="black" points="186,-277.7 189.5,-287.7 193,-277.7 186,-277.7"/>
</g>
<!-- Gtk.Accessible -->
<g id="node6" class="node">
<title>Gtk.Accessible</title>
<polygon fill="none" stroke="black" points="99,-252 0,-252 0,-216 99,-216 99,-252"/>
<text text-anchor="middle" x="49.5" y="-230.3" font-family="Times" font-size="14.00">Gtk.Accessible</text>
</g>
<!-- Gtk.Accessible&#45;&gt;Gtk.Box -->
<g id="edge8" class="edge">
<title>Gtk.Accessible&#45;&gt;Gtk.Box</title>
<path fill="none" stroke="black" d="M87.65,-210.62C119.77,-192.05 167.12,-165.34 209.5,-144 237.98,-129.66 271.15,-114.8 294.88,-104.48"/>
<polygon fill="black" stroke="black" points="85.5,-207.82 78.6,-215.86 89.01,-213.87 85.5,-207.82"/>
</g>
<!-- Gtk.Accessible&#45;&gt;Gtk.Widget -->
<g id="edge5" class="edge">
<title>Gtk.Accessible&#45;&gt;Gtk.Widget</title>
<path fill="none" stroke="black" d="M108.69,-213.18C143.78,-201.42 187.34,-186.83 218.42,-176.42"/>
<polygon fill="black" stroke="black" points="107.4,-209.92 99.03,-216.41 109.62,-216.55 107.4,-209.92"/>
</g>
<!-- Gtk.Buildable -->
<g id="node7" class="node">
<title>Gtk.Buildable</title>
<polygon fill="none" stroke="black" points="373,-252 280,-252 280,-216 373,-216 373,-252"/>
<text text-anchor="middle" x="326.5" y="-230.3" font-family="Times" font-size="14.00">Gtk.Buildable</text>
</g>
<!-- Gtk.Buildable&#45;&gt;Gtk.Box -->
<g id="edge9" class="edge">
<title>Gtk.Buildable&#45;&gt;Gtk.Box</title>
<path fill="none" stroke="black" d="M326.5,-205.68C326.5,-176.89 326.5,-132.42 326.5,-108.19"/>
<polygon fill="black" stroke="black" points="323,-205.87 326.5,-215.87 330,-205.87 323,-205.87"/>
</g>
<!-- Gtk.Buildable&#45;&gt;Gtk.Widget -->
<g id="edge6" class="edge">
<title>Gtk.Buildable&#45;&gt;Gtk.Widget</title>
<path fill="none" stroke="black" d="M302.68,-208.48C293.58,-199.11 283.4,-188.64 275.12,-180.1"/>
<polygon fill="black" stroke="black" points="300.21,-210.96 309.69,-215.7 305.23,-206.09 300.21,-210.96"/>
</g>
<!-- Gtk.ConstraintTarget -->
<g id="node8" class="node">
<title>Gtk.ConstraintTarget</title>
<polygon fill="none" stroke="black" points="522,-252 391,-252 391,-216 522,-216 522,-252"/>
<text text-anchor="middle" x="456.5" y="-230.3" font-family="Times" font-size="14.00">Gtk.ConstraintTarget</text>
</g>
<!-- Gtk.ConstraintTarget&#45;&gt;Gtk.Box -->
<g id="edge10" class="edge">
<title>Gtk.ConstraintTarget&#45;&gt;Gtk.Box</title>
<path fill="none" stroke="black" d="M419.56,-210.19C407.28,-201.61 394.07,-191.2 383.5,-180 362.6,-157.84 344.84,-127 334.93,-108.05"/>
<polygon fill="black" stroke="black" points="417.62,-213.11 427.86,-215.83 421.55,-207.32 417.62,-213.11"/>
</g>
<!-- Gtk.ConstraintTarget&#45;&gt;Gtk.Widget -->
<g id="edge7" class="edge">
<title>Gtk.ConstraintTarget&#45;&gt;Gtk.Widget</title>
<path fill="none" stroke="black" d="M398.59,-212.53C366.45,-201.16 327.29,-187.32 298.55,-177.16"/>
<polygon fill="black" stroke="black" points="397.72,-215.93 408.32,-215.97 400.06,-209.33 397.72,-215.93"/>
</g>
<!-- Gtk.Orientable -->
<g id="node9" class="node">
<title>Gtk.Orientable</title>
<polygon fill="none" stroke="black" points="490.5,-180 392.5,-180 392.5,-144 490.5,-144 490.5,-180"/>
<text text-anchor="middle" x="441.5" y="-158.3" font-family="Times" font-size="14.00">Gtk.Orientable</text>
</g>
<!-- Gtk.Orientable&#45;&gt;Gtk.Box -->
<g id="edge11" class="edge">
<title>Gtk.Orientable&#45;&gt;Gtk.Box</title>
<path fill="none" stroke="black" d="M404.68,-138.59C388.5,-128.74 369.79,-117.35 354.74,-108.19"/>
<polygon fill="black" stroke="black" points="403.01,-141.67 413.37,-143.88 406.65,-135.69 403.01,-141.67"/>
</g>
</g>
</svg>
