<?xml version="1.0" encoding="UTF-8" standalone="no"?>
<!DOCTYPE svg PUBLIC "-//W3C//DTD SVG 1.1//EN"
 "http://www.w3.org/Graphics/SVG/1.1/DTD/svg11.dtd">
<!-- Generated by graphviz version 2.43.0 (0)
 -->
<!-- Title: He.OverlayButton Pages: 1 -->
<svg width="530pt" height="332pt"
 viewBox="0.00 0.00 530.00 332.00" xmlns="http://www.w3.org/2000/svg" xmlns:xlink="http://www.w3.org/1999/xlink">
<g id="graph0" class="graph" transform="scale(1 1) rotate(0) translate(4 328)">
<title>He.OverlayButton</title>
<polygon fill="white" stroke="transparent" points="-4,4 -4,-328 526,-328 526,4 -4,4"/>
<!-- He.OverlayButton -->
<g id="node1" class="node">
<title>He.OverlayButton</title>
<g id="a_node1"><a xlink:href="He.OverlayButton.html" xlink:title="He.OverlayButton">
<polygon fill="none" stroke="black" stroke-width="2" points="428.5,-36 312.5,-36 312.5,0 428.5,0 428.5,-36"/>
<text text-anchor="middle" x="370.5" y="-14.3" font-family="Times" font-size="14.00">He.OverlayButton</text>
</a>
</g>
</g>
<!-- Gtk.Box -->
<g id="node2" class="node">
<title>Gtk.Box</title>
<polygon fill="none" stroke="black" stroke-width="2" points="364,-108 301,-108 301,-72 364,-72 364,-108"/>
<text text-anchor="middle" x="332.5" y="-86.3" font-family="Times" font-size="14.00">Gtk.Box</text>
</g>
<!-- Gtk.Box&#45;&gt;He.OverlayButton -->
<g id="edge1" class="edge">
<title>Gtk.Box&#45;&gt;He.OverlayButton</title>
<path fill="none" stroke="black" d="M346.72,-62.8C351.57,-53.87 356.86,-44.13 361.21,-36.1"/>
<polygon fill="black" stroke="black" points="343.59,-61.24 341.89,-71.7 349.74,-64.58 343.59,-61.24"/>
</g>
<!-- Gtk.Widget -->
<g id="node3" class="node">
<title>Gtk.Widget</title>
<polygon fill="none" stroke="black" stroke-width="2" points="338.5,-180 258.5,-180 258.5,-144 338.5,-144 338.5,-180"/>
<text text-anchor="middle" x="298.5" y="-158.3" font-family="Times" font-size="14.00">Gtk.Widget</text>
</g>
<!-- Gtk.Widget&#45;&gt;Gtk.Box -->
<g id="edge2" class="edge">
<title>Gtk.Widget&#45;&gt;Gtk.Box</title>
<path fill="none" stroke="black" d="M311.36,-134.51C315.66,-125.67 320.34,-116.04 324.19,-108.1"/>
<polygon fill="black" stroke="black" points="308.13,-133.17 306.9,-143.7 314.42,-136.23 308.13,-133.17"/>
</g>
<!-- GLib.InitiallyUnowned -->
<g id="node4" class="node">
<title>GLib.InitiallyUnowned</title>
<polygon fill="none" stroke="black" stroke-width="2" points="293.5,-252 149.5,-252 149.5,-216 293.5,-216 293.5,-252"/>
<text text-anchor="middle" x="221.5" y="-230.3" font-family="Times" font-size="14.00">GLib.InitiallyUnowned</text>
</g>
<!-- GLib.InitiallyUnowned&#45;&gt;Gtk.Widget -->
<g id="edge3" class="edge">
<title>GLib.InitiallyUnowned&#45;&gt;Gtk.Widget</title>
<path fill="none" stroke="black" d="M248.17,-208.76C258.55,-199.32 270.21,-188.72 279.69,-180.1"/>
<polygon fill="black" stroke="black" points="245.58,-206.38 240.53,-215.7 250.29,-211.56 245.58,-206.38"/>
</g>
<!-- GLib.Object -->
<g id="node5" class="node">
<title>GLib.Object</title>
<polygon fill="none" stroke="black" stroke-width="2" points="264,-324 179,-324 179,-288 264,-288 264,-324"/>
<text text-anchor="middle" x="221.5" y="-302.3" font-family="Times" font-size="14.00">GLib.Object</text>
</g>
<!-- GLib.Object&#45;&gt;GLib.InitiallyUnowned -->
<g id="edge4" class="edge">
<title>GLib.Object&#45;&gt;GLib.InitiallyUnowned</title>
<path fill="none" stroke="black" d="M221.5,-277.67C221.5,-269.05 221.5,-259.79 221.5,-252.1"/>
<polygon fill="black" stroke="black" points="218,-277.7 221.5,-287.7 225,-277.7 218,-277.7"/>
</g>
<!-- Gtk.Accessible -->
<g id="node6" class="node">
<title>Gtk.Accessible</title>
<polygon fill="none" stroke="black" points="411,-252 312,-252 312,-216 411,-216 411,-252"/>
<text text-anchor="middle" x="361.5" y="-230.3" font-family="Times" font-size="14.00">Gtk.Accessible</text>
</g>
<!-- Gtk.Accessible&#45;&gt;Gtk.Box -->
<g id="edge8" class="edge">
<title>Gtk.Accessible&#45;&gt;Gtk.Box</title>
<path fill="none" stroke="black" d="M358.06,-205.64C355.62,-187.95 352,-164.5 347.5,-144 344.84,-131.86 341.01,-118.38 337.89,-108.05"/>
<polygon fill="black" stroke="black" points="354.63,-206.38 359.42,-215.82 361.57,-205.45 354.63,-206.38"/>
</g>
<!-- Gtk.Accessible&#45;&gt;Gtk.Widget -->
<g id="edge5" class="edge">
<title>Gtk.Accessible&#45;&gt;Gtk.Widget</title>
<path fill="none" stroke="black" d="M339.18,-208.2C330.81,-198.9 321.5,-188.55 313.89,-180.1"/>
<polygon fill="black" stroke="black" points="336.64,-210.61 345.93,-215.7 341.84,-205.92 336.64,-210.61"/>
</g>
<!-- Gtk.Buildable -->
<g id="node7" class="node">
<title>Gtk.Buildable</title>
<polygon fill="none" stroke="black" points="522,-252 429,-252 429,-216 522,-216 522,-252"/>
<text text-anchor="middle" x="475.5" y="-230.3" font-family="Times" font-size="14.00">Gtk.Buildable</text>
</g>
<!-- Gtk.Buildable&#45;&gt;He.OverlayButton -->
<g id="edge12" class="edge">
<title>Gtk.Buildable&#45;&gt;He.OverlayButton</title>
<path fill="none" stroke="black" d="M462.66,-206.84C440.89,-162.47 397.31,-73.64 378.96,-36.23"/>
<polygon fill="black" stroke="black" points="459.54,-208.41 467.08,-215.85 465.82,-205.33 459.54,-208.41"/>
</g>
<!-- Gtk.Buildable&#45;&gt;Gtk.Box -->
<g id="edge9" class="edge">
<title>Gtk.Buildable&#45;&gt;Gtk.Box</title>
<path fill="none" stroke="black" d="M450.99,-208.66C422.17,-180.05 375.08,-133.28 349.81,-108.19"/>
<polygon fill="black" stroke="black" points="448.69,-211.31 458.25,-215.87 453.62,-206.34 448.69,-211.31"/>
</g>
<!-- Gtk.Buildable&#45;&gt;Gtk.Widget -->
<g id="edge6" class="edge">
<title>Gtk.Buildable&#45;&gt;Gtk.Widget</title>
<path fill="none" stroke="black" d="M422.9,-212.2C395.92,-201.53 363.57,-188.73 338.63,-178.87"/>
<polygon fill="black" stroke="black" points="421.61,-215.45 432.2,-215.88 424.19,-208.94 421.61,-215.45"/>
</g>
<!-- Gtk.ConstraintTarget -->
<g id="node8" class="node">
<title>Gtk.ConstraintTarget</title>
<polygon fill="none" stroke="black" points="131,-252 0,-252 0,-216 131,-216 131,-252"/>
<text text-anchor="middle" x="65.5" y="-230.3" font-family="Times" font-size="14.00">Gtk.ConstraintTarget</text>
</g>
<!-- Gtk.ConstraintTarget&#45;&gt;Gtk.Box -->
<g id="edge10" class="edge">
<title>Gtk.ConstraintTarget&#45;&gt;Gtk.Box</title>
<path fill="none" stroke="black" d="M79.12,-206.88C90.91,-186.79 109.78,-159.86 133.5,-144 185.51,-109.22 259.41,-97.23 300.96,-93.12"/>
<polygon fill="black" stroke="black" points="75.93,-205.41 74.06,-215.84 82.03,-208.85 75.93,-205.41"/>
</g>
<!-- Gtk.ConstraintTarget&#45;&gt;Gtk.Widget -->
<g id="edge7" class="edge">
<title>Gtk.ConstraintTarget&#45;&gt;Gtk.Widget</title>
<path fill="none" stroke="black" d="M137.78,-213.14C171.81,-203.55 212.87,-191.62 249.5,-180 252.42,-179.07 255.43,-178.09 258.45,-177.09"/>
<polygon fill="black" stroke="black" points="136.6,-209.84 127.92,-215.91 138.5,-216.58 136.6,-209.84"/>
</g>
<!-- Gtk.Orientable -->
<g id="node9" class="node">
<title>Gtk.Orientable</title>
<polygon fill="none" stroke="black" points="240.5,-180 142.5,-180 142.5,-144 240.5,-144 240.5,-180"/>
<text text-anchor="middle" x="191.5" y="-158.3" font-family="Times" font-size="14.00">Gtk.Orientable</text>
</g>
<!-- Gtk.Orientable&#45;&gt;Gtk.Box -->
<g id="edge11" class="edge">
<title>Gtk.Orientable&#45;&gt;Gtk.Box</title>
<path fill="none" stroke="black" d="M235.13,-139.34C256.36,-128.8 281.4,-116.37 300.77,-106.75"/>
<polygon fill="black" stroke="black" points="233.39,-136.29 225.99,-143.88 236.51,-142.56 233.39,-136.29"/>
</g>
</g>
</svg>
