<?xml version="1.0" encoding="UTF-8" standalone="no"?>
<!DOCTYPE svg PUBLIC "-//W3C//DTD SVG 1.1//EN"
 "http://www.w3.org/Graphics/SVG/1.1/DTD/svg11.dtd">
<!-- Generated by graphviz version 2.43.0 (0)
 -->
<!-- Title: He.ViewSubTitle Pages: 1 -->
<svg width="530pt" height="260pt"
 viewBox="0.00 0.00 529.50 260.00" xmlns="http://www.w3.org/2000/svg" xmlns:xlink="http://www.w3.org/1999/xlink">
<g id="graph0" class="graph" transform="scale(1 1) rotate(0) translate(4 256)">
<title>He.ViewSubTitle</title>
<polygon fill="white" stroke="transparent" points="-4,4 -4,-256 525.5,-256 525.5,4 -4,4"/>
<!-- He.ViewSubTitle -->
<g id="node1" class="node">
<title>He.ViewSubTitle</title>
<g id="a_node1"><a xlink:href="He.ViewSubTitle.html" xlink:title="He.ViewSubTitle">
<polygon fill="none" stroke="black" stroke-width="2" points="434.5,-36 323.5,-36 323.5,0 434.5,0 434.5,-36"/>
<text text-anchor="middle" x="379" y="-14.3" font-family="Times" font-size="14.00">He.ViewSubTitle</text>
</a>
</g>
</g>
<!-- Gtk.Widget -->
<g id="node2" class="node">
<title>Gtk.Widget</title>
<polygon fill="none" stroke="black" stroke-width="2" points="385,-108 305,-108 305,-72 385,-72 385,-108"/>
<text text-anchor="middle" x="345" y="-86.3" font-family="Times" font-size="14.00">Gtk.Widget</text>
</g>
<!-- Gtk.Widget&#45;&gt;He.ViewSubTitle -->
<g id="edge1" class="edge">
<title>Gtk.Widget&#45;&gt;He.ViewSubTitle</title>
<path fill="none" stroke="black" d="M357.86,-62.51C362.16,-53.67 366.84,-44.04 370.69,-36.1"/>
<polygon fill="black" stroke="black" points="354.63,-61.17 353.4,-71.7 360.92,-64.23 354.63,-61.17"/>
</g>
<!-- GLib.InitiallyUnowned -->
<g id="node3" class="node">
<title>GLib.InitiallyUnowned</title>
<polygon fill="none" stroke="black" stroke-width="2" points="144,-180 0,-180 0,-144 144,-144 144,-180"/>
<text text-anchor="middle" x="72" y="-158.3" font-family="Times" font-size="14.00">GLib.InitiallyUnowned</text>
</g>
<!-- GLib.InitiallyUnowned&#45;&gt;Gtk.Widget -->
<g id="edge2" class="edge">
<title>GLib.InitiallyUnowned&#45;&gt;Gtk.Widget</title>
<path fill="none" stroke="black" d="M148.41,-141.41C199.26,-128.37 264.01,-111.77 305,-101.26"/>
<polygon fill="black" stroke="black" points="147.25,-138.09 138.43,-143.97 148.99,-144.87 147.25,-138.09"/>
</g>
<!-- GLib.Object -->
<g id="node4" class="node">
<title>GLib.Object</title>
<polygon fill="none" stroke="black" stroke-width="2" points="114.5,-252 29.5,-252 29.5,-216 114.5,-216 114.5,-252"/>
<text text-anchor="middle" x="72" y="-230.3" font-family="Times" font-size="14.00">GLib.Object</text>
</g>
<!-- GLib.Object&#45;&gt;GLib.InitiallyUnowned -->
<g id="edge3" class="edge">
<title>GLib.Object&#45;&gt;GLib.InitiallyUnowned</title>
<path fill="none" stroke="black" d="M72,-205.67C72,-197.05 72,-187.79 72,-180.1"/>
<polygon fill="black" stroke="black" points="68.5,-205.7 72,-215.7 75.5,-205.7 68.5,-205.7"/>
</g>
<!-- Gtk.Accessible -->
<g id="node5" class="node">
<title>Gtk.Accessible</title>
<polygon fill="none" stroke="black" points="261.5,-180 162.5,-180 162.5,-144 261.5,-144 261.5,-180"/>
<text text-anchor="middle" x="212" y="-158.3" font-family="Times" font-size="14.00">Gtk.Accessible</text>
</g>
<!-- Gtk.Accessible&#45;&gt;Gtk.Widget -->
<g id="edge4" class="edge">
<title>Gtk.Accessible&#45;&gt;Gtk.Widget</title>
<path fill="none" stroke="black" d="M253.55,-139.13C272.5,-129.16 294.61,-117.52 312.34,-108.19"/>
<polygon fill="black" stroke="black" points="251.75,-136.12 244.54,-143.88 255.01,-142.32 251.75,-136.12"/>
</g>
<!-- Gtk.Buildable -->
<g id="node6" class="node">
<title>Gtk.Buildable</title>
<polygon fill="none" stroke="black" points="521.5,-180 428.5,-180 428.5,-144 521.5,-144 521.5,-180"/>
<text text-anchor="middle" x="475" y="-158.3" font-family="Times" font-size="14.00">Gtk.Buildable</text>
</g>
<!-- Gtk.Buildable&#45;&gt;He.ViewSubTitle -->
<g id="edge7" class="edge">
<title>Gtk.Buildable&#45;&gt;He.ViewSubTitle</title>
<path fill="none" stroke="black" d="M457.8,-135.56C438.4,-106.86 407.37,-60.96 390.62,-36.19"/>
<polygon fill="black" stroke="black" points="454.92,-137.55 463.42,-143.87 460.72,-133.63 454.92,-137.55"/>
</g>
<!-- Gtk.Buildable&#45;&gt;Gtk.Widget -->
<g id="edge5" class="edge">
<title>Gtk.Buildable&#45;&gt;Gtk.Widget</title>
<path fill="none" stroke="black" d="M434.39,-139.13C415.87,-129.16 394.26,-117.52 376.92,-108.19"/>
<polygon fill="black" stroke="black" points="432.73,-142.22 443.2,-143.88 436.05,-136.05 432.73,-142.22"/>
</g>
<!-- Gtk.ConstraintTarget -->
<g id="node7" class="node">
<title>Gtk.ConstraintTarget</title>
<polygon fill="none" stroke="black" points="410.5,-180 279.5,-180 279.5,-144 410.5,-144 410.5,-180"/>
<text text-anchor="middle" x="345" y="-158.3" font-family="Times" font-size="14.00">Gtk.ConstraintTarget</text>
</g>
<!-- Gtk.ConstraintTarget&#45;&gt;Gtk.Widget -->
<g id="edge6" class="edge">
<title>Gtk.ConstraintTarget&#45;&gt;Gtk.Widget</title>
<path fill="none" stroke="black" d="M345,-133.67C345,-125.05 345,-115.79 345,-108.1"/>
<polygon fill="black" stroke="black" points="341.5,-133.7 345,-143.7 348.5,-133.7 341.5,-133.7"/>
</g>
</g>
</svg>
