<svg width="128" height="128" viewBox="0 0 128 128" fill="none" xmlns="http://www.w3.org/2000/svg">
<mask id="path-1-inside-1_2_2" fill="white">
<path d="M16.4627 64.6861L61.4766 21.1726C63.8601 18.8685 67.6605 18.9341 69.9632 21.319L111.976 64.8324C114.221 67.1574 114.221 70.8426 111.976 73.1676L69.9632 116.681C67.6605 119.066 63.8601 119.131 61.4766 116.827L16.4627 73.3139C14.0229 70.9554 14.0229 67.0446 16.4627 64.6861Z"/>
</mask>
<path d="M16.4627 64.6861L61.4766 21.1726C63.8601 18.8685 67.6605 18.9341 69.9632 21.319L111.976 64.8324C114.221 67.1574 114.221 70.8426 111.976 73.1676L69.9632 116.681C67.6605 119.066 63.8601 119.131 61.4766 116.827L16.4627 73.3139C14.0229 70.9554 14.0229 67.0446 16.4627 64.6861Z" fill="#5A41FF" fill-opacity="0.8"/>
<path d="M16.4627 64.6861L61.4766 21.1726C63.8601 18.8685 67.6605 18.9341 69.9632 21.319L111.976 64.8324C114.221 67.1574 114.221 70.8426 111.976 73.1676L69.9632 116.681C67.6605 119.066 63.8601 119.131 61.4766 116.827L16.4627 73.3139C14.0229 70.9554 14.0229 67.0446 16.4627 64.6861Z" fill="url(#paint0_linear_2_2)"/>
<path d="M16.4627 64.6861L61.4766 21.1726C63.8601 18.8685 67.6605 18.9341 69.9632 21.319L111.976 64.8324C114.221 67.1574 114.221 70.8426 111.976 73.1676L69.9632 116.681C67.6605 119.066 63.8601 119.131 61.4766 116.827L16.4627 73.3139C14.0229 70.9554 14.0229 67.0446 16.4627 64.6861Z" stroke="white" stroke-opacity="0.1" stroke-width="2" mask="url(#path-1-inside-1_2_2)"/>
<g filter="url(#filter0_d_2_2)">
<mask id="path-2-inside-2_2_2" fill="white">
<path d="M16.4627 59.6861L61.4766 16.1726C63.8601 13.8685 67.6605 13.9341 69.9632 16.319L111.976 59.8324C114.221 62.1574 114.221 65.8426 111.976 68.1676L69.9632 111.681C67.6605 114.066 63.8601 114.131 61.4766 111.827L16.4627 68.3139C14.0229 65.9554 14.0229 62.0446 16.4627 59.6861Z"/>
</mask>
<path d="M16.4627 59.6861L61.4766 16.1726C63.8601 13.8685 67.6605 13.9341 69.9632 16.319L111.976 59.8324C114.221 62.1574 114.221 65.8426 111.976 68.1676L69.9632 111.681C67.6605 114.066 63.8601 114.131 61.4766 111.827L16.4627 68.3139C14.0229 65.9554 14.0229 62.0446 16.4627 59.6861Z" fill="#8572FF" fill-opacity="0.8" shape-rendering="crispEdges"/>
<path d="M16.4627 59.6861L61.4766 16.1726C63.8601 13.8685 67.6605 13.9341 69.9632 16.319L111.976 59.8324C114.221 62.1574 114.221 65.8426 111.976 68.1676L69.9632 111.681C67.6605 114.066 63.8601 114.131 61.4766 111.827L16.4627 68.3139C14.0229 65.9554 14.0229 62.0446 16.4627 59.6861Z" fill="url(#paint1_linear_2_2)" shape-rendering="crispEdges"/>
<path d="M16.4627 59.6861L61.4766 16.1726C63.8601 13.8685 67.6605 13.9341 69.9632 16.319L111.976 59.8324C114.221 62.1574 114.221 65.8426 111.976 68.1676L69.9632 111.681C67.6605 114.066 63.8601 114.131 61.4766 111.827L16.4627 68.3139C14.0229 65.9554 14.0229 62.0446 16.4627 59.6861Z" stroke="white" stroke-opacity="0.1" stroke-width="2" shape-rendering="crispEdges" mask="url(#path-2-inside-2_2_2)"/>
</g>
<g filter="url(#filter1_d_2_2)">
<mask id="path-3-inside-3_2_2" fill="white">
<path d="M16.4627 53.6861L61.4766 10.1726C63.8601 7.86854 67.6605 7.93409 69.9632 10.319L111.976 53.8324C114.221 56.1574 114.221 59.8426 111.976 62.1676L69.9632 105.681C67.6605 108.066 63.8601 108.131 61.4766 105.827L16.4627 62.3139C14.0229 59.9554 14.0229 56.0446 16.4627 53.6861Z"/>
</mask>
<path d="M16.4627 53.6861L61.4766 10.1726C63.8601 7.86854 67.6605 7.93409 69.9632 10.319L111.976 53.8324C114.221 56.1574 114.221 59.8426 111.976 62.1676L69.9632 105.681C67.6605 108.066 63.8601 108.131 61.4766 105.827L16.4627 62.3139C14.0229 59.9554 14.0229 56.0446 16.4627 53.6861Z" fill="#B9AEFF" fill-opacity="0.8" shape-rendering="crispEdges"/>
<path d="M16.4627 53.6861L61.4766 10.1726C63.8601 7.86854 67.6605 7.93409 69.9632 10.319L111.976 53.8324C114.221 56.1574 114.221 59.8426 111.976 62.1676L69.9632 105.681C67.6605 108.066 63.8601 108.131 61.4766 105.827L16.4627 62.3139C14.0229 59.9554 14.0229 56.0446 16.4627 53.6861Z" fill="url(#paint2_linear_2_2)" shape-rendering="crispEdges"/>
<path d="M16.4627 53.6861L61.4766 10.1726C63.8601 7.86854 67.6605 7.93409 69.9632 10.319L111.976 53.8324C114.221 56.1574 114.221 59.8426 111.976 62.1676L69.9632 105.681C67.6605 108.066 63.8601 108.131 61.4766 105.827L16.4627 62.3139C14.0229 59.9554 14.0229 56.0446 16.4627 53.6861Z" stroke="white" stroke-opacity="0.1" stroke-width="2" shape-rendering="crispEdges" mask="url(#path-3-inside-3_2_2)"/>
</g>
<mask id="path-4-inside-4_2_2" fill="white">
<path fill-rule="evenodd" clip-rule="evenodd" d="M40 45C40 41.6863 42.6863 39 46 39H52.9091C56.2228 39 58.9091 41.6863 58.9091 45V53H73.0909V45C73.0909 41.6863 75.7772 39 79.0909 39H86C89.3137 39 92 41.6863 92 45V59V61.875V75C92 78.3137 89.3137 81 86 81H79.0909C75.7772 81 73.0909 78.3137 73.0909 75V67.875H58.9091V75C58.9091 78.3137 56.2228 81 52.9091 81H46C42.6863 81 40 78.3137 40 75V61.875V59V45Z"/>
</mask>
<path fill-rule="evenodd" clip-rule="evenodd" d="M40 45C40 41.6863 42.6863 39 46 39H52.9091C56.2228 39 58.9091 41.6863 58.9091 45V53H73.0909V45C73.0909 41.6863 75.7772 39 79.0909 39H86C89.3137 39 92 41.6863 92 45V59V61.875V75C92 78.3137 89.3137 81 86 81H79.0909C75.7772 81 73.0909 78.3137 73.0909 75V67.875H58.9091V75C58.9091 78.3137 56.2228 81 52.9091 81H46C42.6863 81 40 78.3137 40 75V61.875V59V45Z" fill="#F0F0F2" fill-opacity="0.5"/>
<path d="M58.9091 53H57.9091V54H58.9091V53ZM73.0909 53V54H74.0909V53H73.0909ZM73.0909 67.875H74.0909V66.875H73.0909V67.875ZM58.9091 67.875V66.875H57.9091V67.875H58.9091ZM46 38C42.134 38 39 41.134 39 45H41C41 42.2386 43.2386 40 46 40V38ZM52.9091 38H46V40H52.9091V38ZM59.9091 45C59.9091 41.134 56.7751 38 52.9091 38V40C55.6705 40 57.9091 42.2386 57.9091 45H59.9091ZM59.9091 53V45H57.9091V53H59.9091ZM58.9091 54H73.0909V52H58.9091V54ZM72.0909 45V53H74.0909V45H72.0909ZM79.0909 38C75.2249 38 72.0909 41.134 72.0909 45H74.0909C74.0909 42.2386 76.3295 40 79.0909 40V38ZM86 38H79.0909V40H86V38ZM93 45C93 41.134 89.866 38 86 38V40C88.7614 40 91 42.2386 91 45H93ZM93 59V45H91V59H93ZM91 59V61.875H93V59H91ZM93 75V61.875H91V75H93ZM86 82C89.866 82 93 78.866 93 75H91C91 77.7614 88.7614 80 86 80V82ZM79.0909 82H86V80H79.0909V82ZM72.0909 75C72.0909 78.866 75.2249 82 79.0909 82V80C76.3295 80 74.0909 77.7614 74.0909 75H72.0909ZM72.0909 67.875V75H74.0909V67.875H72.0909ZM73.0909 66.875H58.9091V68.875H73.0909V66.875ZM59.9091 75V67.875H57.9091V75H59.9091ZM52.9091 82C56.7751 82 59.9091 78.866 59.9091 75H57.9091C57.9091 77.7614 55.6705 80 52.9091 80V82ZM46 82H52.9091V80H46V82ZM39 75C39 78.866 42.134 82 46 82V80C43.2386 80 41 77.7614 41 75H39ZM39 61.875V75H41V61.875H39ZM41 61.875V59H39V61.875H41ZM39 45V59H41V45H39Z" fill="white" fill-opacity="0.2" mask="url(#path-4-inside-4_2_2)"/>
<mask id="path-6-inside-5_2_2" fill="white">
<path fill-rule="evenodd" clip-rule="evenodd" d="M40 40.5333C40 37.2196 42.6863 34.5333 46 34.5333H52.9091C56.2228 34.5333 58.9091 37.2196 58.9091 40.5333V48.5333H73.0909V40.5333C73.0909 37.2196 75.7772 34.5333 79.0909 34.5333H86C89.3137 34.5333 92 37.2196 92 40.5333V54.5333V57.4083V70.5333C92 73.847 89.3137 76.5333 86 76.5333H79.0909C75.7772 76.5333 73.0909 73.847 73.0909 70.5333V63.4083H58.9091V70.5333C58.9091 73.847 56.2228 76.5333 52.9091 76.5333H46C42.6863 76.5333 40 73.847 40 70.5333V57.4083V54.5333V40.5333Z"/>
</mask>
<path fill-rule="evenodd" clip-rule="evenodd" d="M40 40.5333C40 37.2196 42.6863 34.5333 46 34.5333H52.9091C56.2228 34.5333 58.9091 37.2196 58.9091 40.5333V48.5333H73.0909V40.5333C73.0909 37.2196 75.7772 34.5333 79.0909 34.5333H86C89.3137 34.5333 92 37.2196 92 40.5333V54.5333V57.4083V70.5333C92 73.847 89.3137 76.5333 86 76.5333H79.0909C75.7772 76.5333 73.0909 73.847 73.0909 70.5333V63.4083H58.9091V70.5333C58.9091 73.847 56.2228 76.5333 52.9091 76.5333H46C42.6863 76.5333 40 73.847 40 70.5333V57.4083V54.5333V40.5333Z" fill="#F0F0F2" fill-opacity="0.5"/>
<path d="M58.9091 48.5333H57.9091V49.5333H58.9091V48.5333ZM73.0909 48.5333V49.5333H74.0909V48.5333H73.0909ZM73.0909 63.4083H74.0909V62.4083H73.0909V63.4083ZM58.9091 63.4083V62.4083H57.9091V63.4083H58.9091ZM46 33.5333C42.134 33.5333 39 36.6673 39 40.5333H41C41 37.7719 43.2386 35.5333 46 35.5333V33.5333ZM52.9091 33.5333H46V35.5333H52.9091V33.5333ZM59.9091 40.5333C59.9091 36.6673 56.7751 33.5333 52.9091 33.5333V35.5333C55.6705 35.5333 57.9091 37.7719 57.9091 40.5333H59.9091ZM59.9091 48.5333V40.5333H57.9091V48.5333H59.9091ZM58.9091 49.5333H73.0909V47.5333H58.9091V49.5333ZM72.0909 40.5333V48.5333H74.0909V40.5333H72.0909ZM79.0909 33.5333C75.2249 33.5333 72.0909 36.6673 72.0909 40.5333H74.0909C74.0909 37.7719 76.3295 35.5333 79.0909 35.5333V33.5333ZM86 33.5333H79.0909V35.5333H86V33.5333ZM93 40.5333C93 36.6673 89.866 33.5333 86 33.5333V35.5333C88.7614 35.5333 91 37.7719 91 40.5333H93ZM93 54.5333V40.5333H91V54.5333H93ZM91 54.5333V57.4083H93V54.5333H91ZM93 70.5333V57.4083H91V70.5333H93ZM86 77.5333C89.866 77.5333 93 74.3993 93 70.5333H91C91 73.2948 88.7614 75.5333 86 75.5333V77.5333ZM79.0909 77.5333H86V75.5333H79.0909V77.5333ZM72.0909 70.5333C72.0909 74.3993 75.2249 77.5333 79.0909 77.5333V75.5333C76.3295 75.5333 74.0909 73.2948 74.0909 70.5333H72.0909ZM72.0909 63.4083V70.5333H74.0909V63.4083H72.0909ZM73.0909 62.4083H58.9091V64.4083H73.0909V62.4083ZM59.9091 70.5333V63.4083H57.9091V70.5333H59.9091ZM52.9091 77.5333C56.7751 77.5333 59.9091 74.3993 59.9091 70.5333H57.9091C57.9091 73.2948 55.6705 75.5333 52.9091 75.5333V77.5333ZM46 77.5333H52.9091V75.5333H46V77.5333ZM39 70.5333C39 74.3993 42.134 77.5333 46 77.5333V75.5333C43.2386 75.5333 41 73.2948 41 70.5333H39ZM39 57.4083V70.5333H41V57.4083H39ZM41 57.4083V54.5333H39V57.4083H41ZM39 40.5333V54.5333H41V40.5333H39Z" fill="white" fill-opacity="0.2" mask="url(#path-6-inside-5_2_2)"/>
<path d="M58.9091 48.5333H57.9091V49.5333H58.9091V48.5333ZM73.0909 48.5333V49.5333H74.0909V48.5333H73.0909ZM73.0909 63.4083H74.0909V62.4083H73.0909V63.4083ZM58.9091 63.4083V62.4083H57.9091V63.4083H58.9091ZM46 33.5333C42.134 33.5333 39 36.6673 39 40.5333H41C41 37.7719 43.2386 35.5333 46 35.5333V33.5333ZM52.9091 33.5333H46V35.5333H52.9091V33.5333ZM59.9091 40.5333C59.9091 36.6673 56.7751 33.5333 52.9091 33.5333V35.5333C55.6705 35.5333 57.9091 37.7719 57.9091 40.5333H59.9091ZM59.9091 48.5333V40.5333H57.9091V48.5333H59.9091ZM58.9091 49.5333H73.0909V47.5333H58.9091V49.5333ZM72.0909 40.5333V48.5333H74.0909V40.5333H72.0909ZM79.0909 33.5333C75.2249 33.5333 72.0909 36.6673 72.0909 40.5333H74.0909C74.0909 37.7719 76.3295 35.5333 79.0909 35.5333V33.5333ZM86 33.5333H79.0909V35.5333H86V33.5333ZM93 40.5333C93 36.6673 89.866 33.5333 86 33.5333V35.5333C88.7614 35.5333 91 37.7719 91 40.5333H93ZM93 54.5333V40.5333H91V54.5333H93ZM91 54.5333V57.4083H93V54.5333H91ZM93 70.5333V57.4083H91V70.5333H93ZM86 77.5333C89.866 77.5333 93 74.3993 93 70.5333H91C91 73.2948 88.7614 75.5333 86 75.5333V77.5333ZM79.0909 77.5333H86V75.5333H79.0909V77.5333ZM72.0909 70.5333C72.0909 74.3993 75.2249 77.5333 79.0909 77.5333V75.5333C76.3295 75.5333 74.0909 73.2948 74.0909 70.5333H72.0909ZM72.0909 63.4083V70.5333H74.0909V63.4083H72.0909ZM73.0909 62.4083H58.9091V64.4083H73.0909V62.4083ZM59.9091 70.5333V63.4083H57.9091V70.5333H59.9091ZM52.9091 77.5333C56.7751 77.5333 59.9091 74.3993 59.9091 70.5333H57.9091C57.9091 73.2948 55.6705 75.5333 52.9091 75.5333V77.5333ZM46 77.5333H52.9091V75.5333H46V77.5333ZM39 70.5333C39 74.3993 42.134 77.5333 46 77.5333V75.5333C43.2386 75.5333 41 73.2948 41 70.5333H39ZM39 57.4083V70.5333H41V57.4083H39ZM41 57.4083V54.5333H39V57.4083H41ZM39 40.5333V54.5333H41V40.5333H39Z" fill="url(#paint3_linear_2_2)" mask="url(#path-6-inside-5_2_2)"/>
<defs>
<filter id="filter0_d_2_2" x="14.6328" y="14.4865" width="99.0269" height="103.027" filterUnits="userSpaceOnUse" color-interpolation-filters="sRGB">
<feFlood flood-opacity="0" result="BackgroundImageFix"/>
<feColorMatrix in="SourceAlpha" type="matrix" values="0 0 0 0 0 0 0 0 0 0 0 0 0 0 0 0 0 0 127 0" result="hardAlpha"/>
<feOffset dy="4"/>
<feComposite in2="hardAlpha" operator="out"/>
<feColorMatrix type="matrix" values="0 0 0 0 0 0 0 0 0 0 0 0 0 0 0 0 0 0 0.1 0"/>
<feBlend mode="normal" in2="BackgroundImageFix" result="effect1_dropShadow_2_2"/>
<feBlend mode="normal" in="SourceGraphic" in2="effect1_dropShadow_2_2" result="shape"/>
</filter>
<filter id="filter1_d_2_2" x="14.6328" y="8.48654" width="99.0269" height="103.027" filterUnits="userSpaceOnUse" color-interpolation-filters="sRGB">
<feFlood flood-opacity="0" result="BackgroundImageFix"/>
<feColorMatrix in="SourceAlpha" type="matrix" values="0 0 0 0 0 0 0 0 0 0 0 0 0 0 0 0 0 0 127 0" result="hardAlpha"/>
<feOffset dy="4"/>
<feComposite in2="hardAlpha" operator="out"/>
<feColorMatrix type="matrix" values="0 0 0 0 0 0 0 0 0 0 0 0 0 0 0 0 0 0 0.1 0"/>
<feBlend mode="normal" in2="BackgroundImageFix" result="effect1_dropShadow_2_2"/>
<feBlend mode="normal" in="SourceGraphic" in2="effect1_dropShadow_2_2" result="shape"/>
</filter>
<linearGradient id="paint0_linear_2_2" x1="64" y1="17" x2="64" y2="121" gradientUnits="userSpaceOnUse">
<stop stop-opacity="0"/>
<stop offset="1" stop-opacity="0.3"/>
</linearGradient>
<linearGradient id="paint1_linear_2_2" x1="64" y1="12" x2="64" y2="116" gradientUnits="userSpaceOnUse">
<stop stop-opacity="0"/>
<stop offset="1" stop-opacity="0.3"/>
</linearGradient>
<linearGradient id="paint2_linear_2_2" x1="64" y1="6" x2="64" y2="110" gradientUnits="userSpaceOnUse">
<stop stop-opacity="0"/>
<stop offset="1" stop-opacity="0.3"/>
</linearGradient>
<linearGradient id="paint3_linear_2_2" x1="66" y1="34.5333" x2="66" y2="76.5333" gradientUnits="userSpaceOnUse">
<stop stop-color="white"/>
<stop offset="1" stop-color="white" stop-opacity="0"/>
</linearGradient>
</defs>
</svg>
