<svg width="16" height="16" viewBox="0 0 16 16" fill="none" xmlns="http://www.w3.org/2000/svg">
<path d="M2.88806 6.1191L6.19732 2.80984C6.58563 2.42152 6.85657 2.1511 7.08422 1.95679C7.30764 1.76609 7.45747 1.6773 7.59235 1.63112C7.90729 1.5233 8.24916 1.5233 8.5641 1.63112C8.69898 1.6773 8.8488 1.76609 9.07222 1.95679C9.29987 2.1511 9.57081 2.42152 9.95913 2.80984L13.2684 6.1191C13.6567 6.50741 13.9271 6.77835 14.1214 7.006C14.3121 7.22942 14.4009 7.37925 14.4471 7.51412C14.5549 7.82907 14.5549 8.17093 14.4471 8.48588C14.4009 8.62075 14.3121 8.77058 14.1214 8.994C13.9271 9.22165 13.6567 9.49259 13.2684 9.8809L9.95913 13.1902C9.57081 13.5785 9.29987 13.8489 9.07222 14.0432C8.8488 14.2339 8.69898 14.3227 8.5641 14.3689C8.24916 14.4767 7.90729 14.4767 7.59235 14.3689C7.45747 14.3227 7.30764 14.2339 7.08422 14.0432C6.85657 13.8489 6.58563 13.5785 6.19732 13.1902L2.88806 9.8809C2.49975 9.49259 2.22932 9.22165 2.03501 8.994C1.84431 8.77058 1.75553 8.62075 1.70935 8.48588C1.60152 8.17093 1.60152 7.82907 1.70935 7.51412C1.75553 7.37925 1.84431 7.22942 2.03501 7.006C2.22932 6.77835 2.49975 6.50741 2.88806 6.1191Z" stroke="#2D2D2D"/>
<rect x="8" y="8" width="2" height="2" rx="1" fill="#2D2D2D"/>
<rect x="6" y="6" width="2" height="2" rx="1" fill="#2D2D2D"/>
<rect x="6" y="8" width="2" height="2" rx="1" fill="#2D2D2D" fill-opacity="0.5"/>
<rect x="8" y="6" width="2" height="2" rx="1" fill="#2D2D2D" fill-opacity="0.5"/>
</svg>
