<svg width="129" height="128" viewBox="0 0 129 128" fill="none" xmlns="http://www.w3.org/2000/svg">
<g filter="url(#filter0_i_845_24)">
<rect x="-9" y="64" width="104" height="104" rx="24" transform="rotate(-45 -9 64)" fill="url(#paint0_linear_845_24)"/>
<rect x="-9" y="64" width="104" height="104" rx="24" transform="rotate(-45 -9 64)" fill="url(#paint1_linear_845_24)" fill-opacity="0.8"/>
</g>
<g style="mix-blend-mode:overlay">
<rect x="49" y="48" width="14" height="14" rx="7" fill="#F0F0F2"/>
<rect x="49" y="48" width="14" height="14" rx="7" stroke="#F0F0F2" stroke-width="4"/>
</g>
<g style="mix-blend-mode:overlay">
<rect x="67" y="66" width="14" height="14" rx="7" fill="#F0F0F2"/>
<rect x="67" y="66" width="14" height="14" rx="7" stroke="#F0F0F2" stroke-width="4"/>
</g>
<g style="mix-blend-mode:overlay">
<rect x="49" y="66" width="14" height="14" rx="7" fill="#F0F0F2"/>
<rect x="49" y="66" width="14" height="14" rx="7" stroke="#F0F0F2" stroke-width="4"/>
</g>
<g style="mix-blend-mode:overlay">
<rect x="67" y="48" width="14" height="14" rx="7" fill="#F0F0F2"/>
<rect x="67" y="48" width="14" height="14" rx="7" stroke="#F0F0F2" stroke-width="4"/>
</g>
<g style="mix-blend-mode:overlay">
<path fill-rule="evenodd" clip-rule="evenodd" d="M83.7973 33.2912C85.2104 30.1708 88.3517 28 92 28C96.9706 28 101 32.0294 101 37C101 40.6483 98.8292 43.7896 95.7088 45.2027C99.065 50.674 101 57.111 101 64V65C101 84.8822 84.8823 101 65 101C57.9475 101 51.3686 98.972 45.8147 95.4674C44.2633 98.1755 41.3447 100 38 100C33.0294 100 29 95.9706 29 91C29 87.5346 30.9586 84.5266 33.8293 83.0227C30.7581 77.7224 29 71.5665 29 65V64C29 44.1178 45.1178 28 65 28C71.889 28 78.326 29.935 83.7973 33.2912ZM83.0165 37.55C77.8849 34.0478 71.6816 32 65 32C47.3269 32 33 46.3269 33 64V65C33 71.2466 34.7898 77.0751 37.8846 82.0007C37.923 82.0002 37.9615 82 38 82C42.9706 82 47 86.0294 47 91C47 91.1521 46.9962 91.3034 46.9888 91.4536C52.1194 94.9536 58.3207 97 65 97C82.6731 97 97 82.6731 97 65V64C97 57.3184 94.9522 51.1151 91.45 45.9835C86.9175 45.7102 83.2898 42.0825 83.0165 37.55Z" fill="#F0F0F2"/>
</g>
<defs>
<filter id="filter0_i_845_24" x="0.941162" y="0.402023" width="127.196" height="127.196" filterUnits="userSpaceOnUse" color-interpolation-filters="sRGB">
<feFlood flood-opacity="0" result="BackgroundImageFix"/>
<feBlend mode="normal" in="SourceGraphic" in2="BackgroundImageFix" result="shape"/>
<feColorMatrix in="SourceAlpha" type="matrix" values="0 0 0 0 0 0 0 0 0 0 0 0 0 0 0 0 0 0 127 0" result="hardAlpha"/>
<feOffset dy="-4"/>
<feComposite in2="hardAlpha" operator="arithmetic" k2="-1" k3="1"/>
<feColorMatrix type="matrix" values="0 0 0 0 0.0666667 0 0 0 0 0.0666667 0 0 0 0 0.0666667 0 0 0 0.4 0"/>
<feBlend mode="normal" in2="shape" result="effect1_innerShadow_845_24"/>
</filter>
<linearGradient id="paint0_linear_845_24" x1="88.6084" y1="70.3916" x2="-0.840603" y2="159.841" gradientUnits="userSpaceOnUse">
<stop stop-color="#DB2860"/>
<stop offset="1" stop-color="#FEC049"/>
</linearGradient>
<linearGradient id="paint1_linear_845_24" x1="43" y1="64" x2="43" y2="168" gradientUnits="userSpaceOnUse">
<stop stop-color="#F0F0F2" stop-opacity="0"/>
<stop offset="1" stop-color="#2D2D2D" stop-opacity="0.2"/>
<stop offset="1" stop-color="#F0F0F2" stop-opacity="0.2"/>
</linearGradient>
</defs>
</svg>
