<svg width="128" height="128" viewBox="0 0 128 128" fill="none" xmlns="http://www.w3.org/2000/svg">
<path d="M17.7694 68.1679L61.8875 32.4916C64.1476 30.664 67.3925 30.7191 69.5892 32.6224L110.766 68.2987C113.528 70.6912 113.528 74.9755 110.766 77.3681L69.5892 113.044C67.3925 114.948 64.1476 115.003 61.8875 113.175L17.7694 77.4988C14.7997 75.0974 14.7997 70.5694 17.7694 68.1679Z" fill="#5A41FF" fill-opacity="0.8"/>
<path d="M17.7694 68.1679L61.8875 32.4916C64.1476 30.664 67.3925 30.7191 69.5892 32.6224L110.766 68.2987C113.528 70.6912 113.528 74.9755 110.766 77.3681L69.5892 113.044C67.3925 114.948 64.1476 115.003 61.8875 113.175L17.7694 77.4988C14.7997 75.0974 14.7997 70.5694 17.7694 68.1679Z" fill="url(#paint0_linear_2_2)"/>
<path d="M18.0838 68.5567L62.2019 32.8804C64.2736 31.2051 67.2482 31.2556 69.2618 33.0003L110.439 68.6766C112.97 70.8697 112.97 74.797 110.439 76.9902L69.2618 112.666C67.2482 114.411 64.2736 114.462 62.2019 112.786L18.0838 77.11C15.3616 74.9087 15.3616 70.758 18.0838 68.5567Z" stroke="white" stroke-opacity="0.1"/>
<g filter="url(#filter0_d_2_2)">
<path d="M17.7694 59.5012L61.8875 23.8249C64.1476 21.9974 67.3925 22.0524 69.5892 23.9557L110.766 59.632C113.528 62.0245 113.528 66.3088 110.766 68.7014L69.5892 104.378C67.3925 106.281 64.1476 106.336 61.8875 104.508L17.7694 68.8321C14.7997 66.4307 14.7997 61.9027 17.7694 59.5012Z" fill="#8572FF" fill-opacity="0.8" shape-rendering="crispEdges"/>
<path d="M17.7694 59.5012L61.8875 23.8249C64.1476 21.9974 67.3925 22.0524 69.5892 23.9557L110.766 59.632C113.528 62.0245 113.528 66.3088 110.766 68.7014L69.5892 104.378C67.3925 106.281 64.1476 106.336 61.8875 104.508L17.7694 68.8321C14.7997 66.4307 14.7997 61.9027 17.7694 59.5012Z" fill="url(#paint1_linear_2_2)" shape-rendering="crispEdges"/>
<path d="M18.0838 59.89L62.2019 24.2137C64.2736 22.5384 67.2482 22.5889 69.2618 24.3336L110.439 60.0099C112.97 62.203 112.97 66.1303 110.439 68.3235L69.2618 104C67.2482 105.744 64.2736 105.795 62.2019 104.12L18.0838 68.4434C15.3616 66.242 15.3616 62.0914 18.0838 59.89Z" stroke="white" stroke-opacity="0.1" shape-rendering="crispEdges"/>
</g>
<g filter="url(#filter1_d_2_2)">
<path d="M17.7694 50.8346L61.8875 15.1582C64.1476 13.3307 67.3925 13.3858 69.5892 15.289L110.766 50.9653C113.528 53.3578 113.528 57.6422 110.766 60.0347L69.5892 95.711C67.3925 97.6142 64.1476 97.6693 61.8875 95.8418L17.7694 60.1655C14.7997 57.764 14.7997 53.236 17.7694 50.8346Z" fill="#B9AEFF" fill-opacity="0.8" shape-rendering="crispEdges"/>
<path d="M17.7694 50.8346L61.8875 15.1582C64.1476 13.3307 67.3925 13.3858 69.5892 15.289L110.766 50.9653C113.528 53.3578 113.528 57.6422 110.766 60.0347L69.5892 95.711C67.3925 97.6142 64.1476 97.6693 61.8875 95.8418L17.7694 60.1655C14.7997 57.764 14.7997 53.236 17.7694 50.8346Z" fill="url(#paint2_linear_2_2)" shape-rendering="crispEdges"/>
<path d="M18.0838 51.2233L62.2019 15.547C64.2736 13.8718 67.2482 13.9223 69.2618 15.6669L110.439 51.3432C112.97 53.5364 112.97 57.4636 110.439 59.6568L69.2618 95.3331C67.2482 97.0778 64.2736 97.1283 62.2019 95.453L18.0838 59.7767C15.3616 57.5753 15.3616 53.4247 18.0838 51.2233Z" stroke="white" stroke-opacity="0.1" shape-rendering="crispEdges"/>
</g>
<mask id="path-7-inside-1_2_2" fill="white">
<path fill-rule="evenodd" clip-rule="evenodd" d="M40 43C40 39.6863 42.6863 37 46 37H52.9091C56.2228 37 58.9091 39.6863 58.9091 43V51H73.0909V43C73.0909 39.6863 75.7772 37 79.0909 37H86C89.3137 37 92 39.6863 92 43V57V59.875V73C92 76.3137 89.3137 79 86 79H79.0909C75.7772 79 73.0909 76.3137 73.0909 73V65.875H58.9091V73C58.9091 76.3137 56.2228 79 52.9091 79H46C42.6863 79 40 76.3137 40 73V59.875V57V43Z"/>
</mask>
<path fill-rule="evenodd" clip-rule="evenodd" d="M40 43C40 39.6863 42.6863 37 46 37H52.9091C56.2228 37 58.9091 39.6863 58.9091 43V51H73.0909V43C73.0909 39.6863 75.7772 37 79.0909 37H86C89.3137 37 92 39.6863 92 43V57V59.875V73C92 76.3137 89.3137 79 86 79H79.0909C75.7772 79 73.0909 76.3137 73.0909 73V65.875H58.9091V73C58.9091 76.3137 56.2228 79 52.9091 79H46C42.6863 79 40 76.3137 40 73V59.875V57V43Z" fill="#F0F0F2" fill-opacity="0.5"/>
<path d="M58.9091 51H57.9091V52H58.9091V51ZM73.0909 51V52H74.0909V51H73.0909ZM73.0909 65.875H74.0909V64.875H73.0909V65.875ZM58.9091 65.875V64.875H57.9091V65.875H58.9091ZM46 36C42.134 36 39 39.134 39 43H41C41 40.2386 43.2386 38 46 38V36ZM52.9091 36H46V38H52.9091V36ZM59.9091 43C59.9091 39.134 56.7751 36 52.9091 36V38C55.6705 38 57.9091 40.2386 57.9091 43H59.9091ZM59.9091 51V43H57.9091V51H59.9091ZM58.9091 52H73.0909V50H58.9091V52ZM72.0909 43V51H74.0909V43H72.0909ZM79.0909 36C75.2249 36 72.0909 39.134 72.0909 43H74.0909C74.0909 40.2386 76.3295 38 79.0909 38V36ZM86 36H79.0909V38H86V36ZM93 43C93 39.134 89.866 36 86 36V38C88.7614 38 91 40.2386 91 43H93ZM93 57V43H91V57H93ZM91 57V59.875H93V57H91ZM93 73V59.875H91V73H93ZM86 80C89.866 80 93 76.866 93 73H91C91 75.7614 88.7614 78 86 78V80ZM79.0909 80H86V78H79.0909V80ZM72.0909 73C72.0909 76.866 75.2249 80 79.0909 80V78C76.3295 78 74.0909 75.7614 74.0909 73H72.0909ZM72.0909 65.875V73H74.0909V65.875H72.0909ZM73.0909 64.875H58.9091V66.875H73.0909V64.875ZM59.9091 73V65.875H57.9091V73H59.9091ZM52.9091 80C56.7751 80 59.9091 76.866 59.9091 73H57.9091C57.9091 75.7614 55.6705 78 52.9091 78V80ZM46 80H52.9091V78H46V80ZM39 73C39 76.866 42.134 80 46 80V78C43.2386 78 41 75.7614 41 73H39ZM39 59.875V73H41V59.875H39ZM41 59.875V57H39V59.875H41ZM39 43V57H41V43H39Z" fill="white" fill-opacity="0.2" mask="url(#path-7-inside-1_2_2)"/>
<mask id="path-9-inside-2_2_2" fill="white">
<path fill-rule="evenodd" clip-rule="evenodd" d="M40 40.5333C40 37.2196 42.6863 34.5333 46 34.5333H52.9091C56.2228 34.5333 58.9091 37.2196 58.9091 40.5333V48.5333H73.0909V40.5333C73.0909 37.2196 75.7772 34.5333 79.0909 34.5333H86C89.3137 34.5333 92 37.2196 92 40.5333V54.5333V57.4083V70.5333C92 73.847 89.3137 76.5333 86 76.5333H79.0909C75.7772 76.5333 73.0909 73.847 73.0909 70.5333V63.4083H58.9091V70.5333C58.9091 73.847 56.2228 76.5333 52.9091 76.5333H46C42.6863 76.5333 40 73.847 40 70.5333V57.4083V54.5333V40.5333Z"/>
</mask>
<path fill-rule="evenodd" clip-rule="evenodd" d="M40 40.5333C40 37.2196 42.6863 34.5333 46 34.5333H52.9091C56.2228 34.5333 58.9091 37.2196 58.9091 40.5333V48.5333H73.0909V40.5333C73.0909 37.2196 75.7772 34.5333 79.0909 34.5333H86C89.3137 34.5333 92 37.2196 92 40.5333V54.5333V57.4083V70.5333C92 73.847 89.3137 76.5333 86 76.5333H79.0909C75.7772 76.5333 73.0909 73.847 73.0909 70.5333V63.4083H58.9091V70.5333C58.9091 73.847 56.2228 76.5333 52.9091 76.5333H46C42.6863 76.5333 40 73.847 40 70.5333V57.4083V54.5333V40.5333Z" fill="#F0F0F2" fill-opacity="0.5"/>
<path d="M58.9091 48.5333H57.9091V49.5333H58.9091V48.5333ZM73.0909 48.5333V49.5333H74.0909V48.5333H73.0909ZM73.0909 63.4083H74.0909V62.4083H73.0909V63.4083ZM58.9091 63.4083V62.4083H57.9091V63.4083H58.9091ZM46 33.5333C42.134 33.5333 39 36.6673 39 40.5333H41C41 37.7719 43.2386 35.5333 46 35.5333V33.5333ZM52.9091 33.5333H46V35.5333H52.9091V33.5333ZM59.9091 40.5333C59.9091 36.6673 56.7751 33.5333 52.9091 33.5333V35.5333C55.6705 35.5333 57.9091 37.7719 57.9091 40.5333H59.9091ZM59.9091 48.5333V40.5333H57.9091V48.5333H59.9091ZM58.9091 49.5333H73.0909V47.5333H58.9091V49.5333ZM72.0909 40.5333V48.5333H74.0909V40.5333H72.0909ZM79.0909 33.5333C75.2249 33.5333 72.0909 36.6673 72.0909 40.5333H74.0909C74.0909 37.7719 76.3295 35.5333 79.0909 35.5333V33.5333ZM86 33.5333H79.0909V35.5333H86V33.5333ZM93 40.5333C93 36.6673 89.866 33.5333 86 33.5333V35.5333C88.7614 35.5333 91 37.7719 91 40.5333H93ZM93 54.5333V40.5333H91V54.5333H93ZM91 54.5333V57.4083H93V54.5333H91ZM93 70.5333V57.4083H91V70.5333H93ZM86 77.5333C89.866 77.5333 93 74.3993 93 70.5333H91C91 73.2948 88.7614 75.5333 86 75.5333V77.5333ZM79.0909 77.5333H86V75.5333H79.0909V77.5333ZM72.0909 70.5333C72.0909 74.3993 75.2249 77.5333 79.0909 77.5333V75.5333C76.3295 75.5333 74.0909 73.2948 74.0909 70.5333H72.0909ZM72.0909 63.4083V70.5333H74.0909V63.4083H72.0909ZM73.0909 62.4083H58.9091V64.4083H73.0909V62.4083ZM59.9091 70.5333V63.4083H57.9091V70.5333H59.9091ZM52.9091 77.5333C56.7751 77.5333 59.9091 74.3993 59.9091 70.5333H57.9091C57.9091 73.2948 55.6705 75.5333 52.9091 75.5333V77.5333ZM46 77.5333H52.9091V75.5333H46V77.5333ZM39 70.5333C39 74.3993 42.134 77.5333 46 77.5333V75.5333C43.2386 75.5333 41 73.2948 41 70.5333H39ZM39 57.4083V70.5333H41V57.4083H39ZM41 57.4083V54.5333H39V57.4083H41ZM39 40.5333V54.5333H41V40.5333H39Z" fill="white" fill-opacity="0.2" mask="url(#path-9-inside-2_2_2)"/>
<path d="M58.9091 48.5333H57.9091V49.5333H58.9091V48.5333ZM73.0909 48.5333V49.5333H74.0909V48.5333H73.0909ZM73.0909 63.4083H74.0909V62.4083H73.0909V63.4083ZM58.9091 63.4083V62.4083H57.9091V63.4083H58.9091ZM46 33.5333C42.134 33.5333 39 36.6673 39 40.5333H41C41 37.7719 43.2386 35.5333 46 35.5333V33.5333ZM52.9091 33.5333H46V35.5333H52.9091V33.5333ZM59.9091 40.5333C59.9091 36.6673 56.7751 33.5333 52.9091 33.5333V35.5333C55.6705 35.5333 57.9091 37.7719 57.9091 40.5333H59.9091ZM59.9091 48.5333V40.5333H57.9091V48.5333H59.9091ZM58.9091 49.5333H73.0909V47.5333H58.9091V49.5333ZM72.0909 40.5333V48.5333H74.0909V40.5333H72.0909ZM79.0909 33.5333C75.2249 33.5333 72.0909 36.6673 72.0909 40.5333H74.0909C74.0909 37.7719 76.3295 35.5333 79.0909 35.5333V33.5333ZM86 33.5333H79.0909V35.5333H86V33.5333ZM93 40.5333C93 36.6673 89.866 33.5333 86 33.5333V35.5333C88.7614 35.5333 91 37.7719 91 40.5333H93ZM93 54.5333V40.5333H91V54.5333H93ZM91 54.5333V57.4083H93V54.5333H91ZM93 70.5333V57.4083H91V70.5333H93ZM86 77.5333C89.866 77.5333 93 74.3993 93 70.5333H91C91 73.2948 88.7614 75.5333 86 75.5333V77.5333ZM79.0909 77.5333H86V75.5333H79.0909V77.5333ZM72.0909 70.5333C72.0909 74.3993 75.2249 77.5333 79.0909 77.5333V75.5333C76.3295 75.5333 74.0909 73.2948 74.0909 70.5333H72.0909ZM72.0909 63.4083V70.5333H74.0909V63.4083H72.0909ZM73.0909 62.4083H58.9091V64.4083H73.0909V62.4083ZM59.9091 70.5333V63.4083H57.9091V70.5333H59.9091ZM52.9091 77.5333C56.7751 77.5333 59.9091 74.3993 59.9091 70.5333H57.9091C57.9091 73.2948 55.6705 75.5333 52.9091 75.5333V77.5333ZM46 77.5333H52.9091V75.5333H46V77.5333ZM39 70.5333C39 74.3993 42.134 77.5333 46 77.5333V75.5333C43.2386 75.5333 41 73.2948 41 70.5333H39ZM39 57.4083V70.5333H41V57.4083H39ZM41 57.4083V54.5333H39V57.4083H41ZM39 40.5333V54.5333H41V40.5333H39Z" fill="url(#paint3_linear_2_2)" mask="url(#path-9-inside-2_2_2)"/>
<defs>
<filter id="filter0_d_2_2" x="15.5421" y="22.4904" width="97.2951" height="87.3526" filterUnits="userSpaceOnUse" color-interpolation-filters="sRGB">
<feFlood flood-opacity="0" result="BackgroundImageFix"/>
<feColorMatrix in="SourceAlpha" type="matrix" values="0 0 0 0 0 0 0 0 0 0 0 0 0 0 0 0 0 0 127 0" result="hardAlpha"/>
<feOffset dy="4"/>
<feComposite in2="hardAlpha" operator="out"/>
<feColorMatrix type="matrix" values="0 0 0 0 0 0 0 0 0 0 0 0 0 0 0 0 0 0 0.1 0"/>
<feBlend mode="normal" in2="BackgroundImageFix" result="effect1_dropShadow_2_2"/>
<feBlend mode="normal" in="SourceGraphic" in2="effect1_dropShadow_2_2" result="shape"/>
</filter>
<filter id="filter1_d_2_2" x="15.5421" y="13.8237" width="97.2951" height="87.3526" filterUnits="userSpaceOnUse" color-interpolation-filters="sRGB">
<feFlood flood-opacity="0" result="BackgroundImageFix"/>
<feColorMatrix in="SourceAlpha" type="matrix" values="0 0 0 0 0 0 0 0 0 0 0 0 0 0 0 0 0 0 127 0" result="hardAlpha"/>
<feOffset dy="4"/>
<feComposite in2="hardAlpha" operator="out"/>
<feColorMatrix type="matrix" values="0 0 0 0 0 0 0 0 0 0 0 0 0 0 0 0 0 0 0.1 0"/>
<feBlend mode="normal" in2="BackgroundImageFix" result="effect1_dropShadow_2_2"/>
<feBlend mode="normal" in="SourceGraphic" in2="effect1_dropShadow_2_2" result="shape"/>
</filter>
<linearGradient id="paint0_linear_2_2" x1="64" y1="29.3334" x2="64" y2="116.333" gradientUnits="userSpaceOnUse">
<stop stop-opacity="0"/>
<stop offset="1" stop-opacity="0.3"/>
</linearGradient>
<linearGradient id="paint1_linear_2_2" x1="64" y1="20.6667" x2="64" y2="107.667" gradientUnits="userSpaceOnUse">
<stop stop-opacity="0"/>
<stop offset="1" stop-opacity="0.3"/>
</linearGradient>
<linearGradient id="paint2_linear_2_2" x1="64" y1="12" x2="64" y2="99" gradientUnits="userSpaceOnUse">
<stop stop-opacity="0"/>
<stop offset="1" stop-opacity="0.3"/>
</linearGradient>
<linearGradient id="paint3_linear_2_2" x1="66" y1="34.5333" x2="66" y2="76.5333" gradientUnits="userSpaceOnUse">
<stop stop-color="white"/>
<stop offset="1" stop-color="white" stop-opacity="0"/>
</linearGradient>
</defs>
</svg>
